<svg width="194" height="180" viewBox="0 0 194 180" fill="none" xmlns="http://www.w3.org/2000/svg">
<g opacity="0.1">
<path d="M187.715 68.2619C187.715 68.2619 188.391 71.1928 186.15 74.4652C186.15 74.4652 189.811 74.3524 191.572 76.7773C191.572 76.7773 190.985 73.2527 193.5 70.574C193.5 70.574 190.063 71.1944 187.715 68.2619Z" fill="white"/>
</g>
<path d="M2.22418 113.495C2.22418 113.495 3.18467 117.661 0 122.312C0 122.312 5.20303 122.151 7.70522 125.598C7.70522 125.598 6.87118 120.589 10.4458 116.782C10.4458 116.782 5.56048 117.663 2.22418 113.495Z" fill="white"/>
<path d="M176.749 113.154C176.749 113.154 177.424 116.085 175.184 119.357C175.184 119.357 178.845 119.245 180.605 121.669C180.605 121.669 180.018 118.145 182.534 115.466C182.534 115.466 179.096 116.087 176.749 113.154Z" fill="white"/>
<g opacity="0.300003">
<g opacity="0.300003">
<path opacity="0.300003" d="M182.383 173.078C182.383 176.123 144.246 178.592 97.2023 178.592C50.1583 178.592 12.0215 176.123 12.0215 173.078C12.0215 170.032 50.1583 167.564 97.2023 167.564C144.246 167.564 182.383 170.032 182.383 173.078Z" fill="#000072"/>
</g>
</g>
<path d="M168.897 166.182C165.517 170.137 160.558 172.361 155.379 172.361H39.0128C33.8344 172.361 28.8751 170.137 25.4947 166.182C23.6271 163.996 22.2464 161.561 21.3178 159.07C21.3144 159.07 21.3144 159.069 21.3144 159.066C18.393 151.248 19.8815 142.858 24.5417 139.841C32.3667 134.767 38.4007 140.967 38.4007 140.967C39.0684 139.384 39.9726 138.012 40.9847 136.837C44.7963 132.395 50.1382 130.703 50.1382 130.703C47.2342 113.899 53.7168 98.6738 53.7168 98.6738C53.7168 98.6738 69.6903 110.853 97.196 110.853C124.702 110.853 140.675 98.6738 140.675 98.6738C140.675 98.6738 147.158 113.899 144.254 130.703C144.254 130.703 152.806 133.412 155.991 140.967C155.991 140.967 162.025 134.767 169.85 139.841C175.995 143.823 176.625 157.147 168.897 166.182Z" fill="#B11313"/>
<g opacity="0.300003">
<g opacity="0.300003">
<path opacity="0.300003" d="M43.0417 156.459C44.1198 145.929 38.4023 141.385 38.4023 141.385C39.0701 139.802 39.9743 138.43 40.9863 137.255C49.8547 147.957 43.0417 156.459 43.0417 156.459Z" fill="#000072"/>
</g>
</g>
<g opacity="0.300003">
<g opacity="0.300003">
<path opacity="0.300003" d="M151.385 156.459C150.307 145.929 156.024 141.385 156.024 141.385C155.356 139.802 154.452 138.43 153.44 137.255C144.572 147.957 151.385 156.459 151.385 156.459Z" fill="#000072"/>
</g>
</g>
<g opacity="0.300003">
<g opacity="0.300003">
<path opacity="0.300003" d="M152.289 165.298C151.46 165.09 150.606 165.018 149.757 165.112C148.548 165.246 146.467 165.454 143.415 165.685C138.821 166.032 134.81 162.55 134.496 157.913C134.362 155.921 134.657 154.374 134.764 153.896C133.564 159.069 131.35 163.836 129.999 166.45C123.143 166.738 114.46 166.973 103.722 167.041C103.142 146.107 115.196 126.478 115.196 126.478C96.7277 141.384 79.2255 126.478 79.2255 126.478C91.4118 148.302 90.7773 166.132 90.7773 166.132L92.8297 167.053C81.1033 167.003 71.7253 166.757 64.422 166.45C63.0714 163.836 60.8564 159.069 59.6568 153.896C59.7682 154.393 60.0833 156.047 59.9062 158.155C59.525 162.692 55.5099 166.026 51.0092 165.685C47.9554 165.454 45.8737 165.246 44.6639 165.112C43.815 165.018 42.9608 165.09 42.1322 165.298C28.8916 168.624 21.5546 159.779 21.3184 159.486C22.2469 161.978 23.6276 164.413 25.4952 166.599C28.8756 170.554 33.8349 172.778 39.0133 172.778H97.2105H155.408C160.586 172.778 165.545 170.554 168.926 166.599C170.793 164.413 172.174 161.978 173.102 159.486C172.866 159.779 165.529 168.624 152.289 165.298Z" fill="#000072"/>
</g>
</g>
<g opacity="0.300003">
<g opacity="0.300003">
<path opacity="0.300003" d="M59.6604 153.896C59.6376 153.796 59.623 153.74 59.623 153.74C59.635 153.793 59.6482 153.844 59.6604 153.896Z" fill="#000072"/>
</g>
</g>
<g opacity="0.300003">
<g opacity="0.300003">
<path opacity="0.300003" d="M134.758 153.896C134.77 153.844 134.783 153.793 134.795 153.74C134.795 153.74 134.781 153.796 134.758 153.896Z" fill="#000072"/>
</g>
</g>
<path d="M97.1855 171.562H155.383C160.265 171.562 164.86 169.464 167.989 165.805C172.032 161.079 174.025 154.533 173.192 148.723C172.704 145.322 171.25 142.609 169.203 141.282C162.283 136.793 157.072 142.014 156.854 142.239C156.572 142.528 156.166 142.658 155.77 142.582C155.374 142.506 155.042 142.236 154.884 141.863C151.95 134.903 143.976 132.309 143.896 132.283C143.318 132.101 142.965 131.515 143.069 130.914C145.378 117.559 141.563 105.065 140.103 100.971C135.729 103.856 120.68 112.489 97.1996 112.489C73.7189 112.489 58.6697 103.856 54.2965 100.971C52.8358 105.065 49.0209 117.559 51.3304 130.914C51.4343 131.515 51.0807 132.101 50.5036 132.283C50.4248 132.309 42.4373 134.93 39.5146 141.863C39.357 142.236 39.0249 142.506 38.6294 142.582C38.234 142.658 37.8269 142.528 37.5449 142.239C37.3272 142.018 32.072 136.821 25.1958 141.282C23.1492 142.609 21.6954 145.322 21.2075 148.723C20.3741 154.533 22.3675 161.079 26.4101 165.805C29.5394 169.464 34.1341 171.562 39.016 171.562H97.1855ZM155.383 173.995H39.016C33.4324 173.995 28.1723 171.589 24.5846 167.395C20.099 162.15 17.8905 154.862 18.8211 148.375C19.4177 144.215 21.2186 140.969 23.8919 139.235C30.2543 135.109 35.6226 137.804 37.9817 139.482C40.974 133.954 46.5258 131.243 48.7917 130.327C46.2684 113.773 52.3471 99.2335 52.6123 98.6109C52.7585 98.2672 53.0531 98.0108 53.4113 97.9153C53.7699 97.8193 54.1515 97.895 54.447 98.1205C54.6032 98.2391 70.4653 110.056 97.1996 110.056C123.934 110.056 139.796 98.2391 139.953 98.1198C140.249 97.895 140.631 97.8197 140.989 97.9156C141.346 98.0115 141.641 98.2676 141.787 98.6109C142.052 99.2335 148.131 113.773 145.607 130.327C147.873 131.243 153.425 133.954 156.417 139.482C158.776 137.804 164.144 135.108 170.507 139.235C173.181 140.969 174.981 144.215 175.578 148.375C176.509 154.862 174.3 162.15 169.815 167.395C166.227 171.589 160.967 173.995 155.383 173.995Z" fill="#000072"/>
<path d="M39.1048 140.394C39.237 140.485 39.2987 140.535 39.3898 140.603C39.4762 140.668 39.5459 140.73 39.6248 140.794C39.7815 140.921 39.9138 141.056 40.0557 141.188C40.201 141.319 40.3206 141.463 40.451 141.602C40.5823 141.74 40.7056 141.883 40.8212 142.03C41.3015 142.612 41.7054 143.238 42.0656 143.884C42.7875 145.177 43.267 146.571 43.6004 147.975C43.9255 149.385 44.0455 150.816 44.0457 152.229C44.0482 152.936 43.9701 153.64 43.9225 154.336C43.8186 155.031 43.705 155.72 43.5608 156.4C43.5332 156.53 43.4067 156.612 43.2782 156.584C43.1805 156.563 43.1099 156.485 43.0935 156.391L43.0907 156.374C42.9726 155.691 42.899 155.018 42.8102 154.351L42.6374 153.359C42.5742 153.03 42.5506 152.699 42.4641 152.377C42.3021 151.732 42.2153 151.08 42.0109 150.458C41.9219 150.144 41.8521 149.826 41.7551 149.518L41.4442 148.603C41.0153 147.395 40.4913 146.239 39.8601 145.171C39.6957 144.91 39.5418 144.639 39.3632 144.391L39.105 144.01L38.8281 143.649C38.6526 143.4 38.4489 143.18 38.2583 142.955C38.16 142.849 38.0625 142.733 37.9633 142.638C37.9157 142.589 37.8648 142.531 37.8198 142.489C37.7797 142.449 37.714 142.387 37.7095 142.378L37.4493 141.851C37.1699 141.285 37.3983 140.597 37.9595 140.315C38.3397 140.124 38.7765 140.17 39.1048 140.394Z" fill="#000072"/>
<path d="M156.666 142.378C156.662 142.388 156.596 142.45 156.556 142.489C156.511 142.531 156.46 142.589 156.412 142.638C156.313 142.733 156.216 142.849 156.117 142.956C155.927 143.18 155.723 143.4 155.548 143.649L155.271 144.01L155.013 144.391C154.834 144.639 154.68 144.91 154.516 145.171C153.884 146.239 153.361 147.395 152.932 148.603L152.621 149.518C152.524 149.827 152.454 150.144 152.365 150.458C152.161 151.081 152.074 151.732 151.912 152.377C151.825 152.699 151.802 153.031 151.738 153.359L151.566 154.352C151.477 155.018 151.403 155.692 151.285 156.374L151.282 156.391C151.26 156.522 151.136 156.609 151.007 156.586C150.908 156.569 150.835 156.493 150.815 156.4C150.671 155.72 150.557 155.031 150.453 154.336C150.406 153.64 150.328 152.936 150.33 152.229C150.33 150.816 150.45 149.385 150.775 147.975C151.109 146.572 151.588 145.177 152.31 143.884C152.67 143.238 153.074 142.612 153.555 142.031C153.67 141.883 153.794 141.74 153.925 141.602C154.055 141.463 154.175 141.319 154.32 141.188C154.462 141.056 154.594 140.921 154.751 140.794C154.83 140.73 154.9 140.668 154.986 140.603C155.077 140.535 155.139 140.485 155.271 140.394C155.789 140.038 156.495 140.173 156.848 140.696C157.088 141.05 157.103 141.491 156.927 141.85L156.666 142.378Z" fill="#000072"/>
<path d="M51.3409 130.978L51.4392 131.95L51.5619 133.037C51.6051 133.407 51.6626 133.779 51.6944 134.169C51.7298 134.558 51.7507 134.961 51.7311 135.397L51.7311 135.399C51.728 135.467 51.6706 135.52 51.6026 135.517C51.5783 135.516 51.5559 135.508 51.5374 135.494C51.1832 135.243 50.8784 134.954 50.6146 134.639C50.3445 134.327 50.1234 133.986 49.9078 133.637C49.6971 133.285 49.5052 132.919 49.3382 132.536C49.2596 132.343 49.1781 132.149 49.1149 131.944C49.0807 131.843 49.0499 131.738 49.0224 131.631C48.9925 131.515 48.9726 131.43 48.9468 131.266C48.8422 130.603 49.2908 129.979 49.9488 129.873C50.6069 129.768 51.2251 130.22 51.3295 130.884C51.3329 130.906 51.3357 130.927 51.338 130.948L51.3409 130.978Z" fill="#000072"/>
<path d="M145.477 131.267C145.452 131.431 145.432 131.516 145.402 131.631C145.374 131.739 145.343 131.843 145.309 131.944C145.246 132.149 145.165 132.343 145.086 132.537C144.919 132.92 144.727 133.285 144.516 133.637C144.301 133.987 144.08 134.328 143.81 134.64C143.546 134.955 143.241 135.243 142.887 135.495C142.831 135.534 142.755 135.521 142.715 135.465C142.701 135.445 142.694 135.422 142.693 135.399L142.693 135.397C142.673 134.962 142.694 134.559 142.73 134.17C142.762 133.779 142.819 133.408 142.862 133.037L142.985 131.95L143.083 130.978L143.086 130.952C143.153 130.284 143.746 129.797 144.408 129.865C145.071 129.933 145.554 130.531 145.486 131.199C145.484 131.221 145.481 131.246 145.477 131.267Z" fill="#000072"/>
<path d="M57.19 143.035C57.19 143.035 51.6708 138.717 50.1431 131.123C50.1431 131.123 46.9679 129.503 44.7734 133.885C44.7734 133.885 47.3049 147.259 59.6231 153.74C59.6231 153.74 57.8431 146.855 57.19 143.035Z" fill="#0096F2"/>
<path d="M46.0495 134.058C46.5467 136.1 49.2238 145.426 57.7444 151.2C57.2052 148.993 56.4906 145.943 56.0809 143.685C54.8027 142.568 50.6428 138.525 49.1145 132.06C48.4205 131.94 47.171 132.08 46.0495 134.058ZM59.6236 154.956C59.4332 154.956 59.242 154.911 59.0662 154.818C46.3768 148.141 43.6976 134.682 43.5898 134.112C43.5398 133.848 43.5779 133.575 43.6981 133.335C45.0689 130.599 46.8612 129.823 48.1235 129.654C49.5201 129.466 50.5722 129.977 50.6875 130.036C51.0169 130.204 51.2519 130.515 51.3253 130.88C52.74 137.913 57.8795 142.034 57.9312 142.075C58.1671 142.261 58.3279 142.53 58.3786 142.828C59.0156 146.553 60.7727 153.364 60.7903 153.433C60.9105 153.898 60.7477 154.391 60.3748 154.691C60.1569 154.866 59.8911 154.956 59.6236 154.956Z" fill="#000072"/>
<path d="M137.238 143.035C137.238 143.035 142.757 138.717 144.285 131.123C144.285 131.123 147.46 129.503 149.654 133.885C149.654 133.885 147.123 147.259 134.805 153.74C134.805 153.74 136.585 146.855 137.238 143.035Z" fill="#0096F2"/>
<path d="M138.346 143.685C137.936 145.944 137.222 148.993 136.682 151.201C145.203 145.426 147.88 136.102 148.377 134.058C147.698 132.857 146.895 132.187 145.987 132.066C145.732 132.032 145.499 132.046 145.309 132.076C143.777 138.532 139.623 142.569 138.346 143.685ZM134.803 154.956C134.536 154.956 134.27 154.866 134.052 154.691C133.679 154.391 133.516 153.898 133.637 153.433C133.654 153.364 135.411 146.553 136.048 142.828C136.099 142.529 136.259 142.261 136.496 142.075C136.547 142.034 141.687 137.913 143.102 130.88C143.175 130.515 143.41 130.204 143.74 130.037C143.855 129.978 144.907 129.466 146.304 129.654C147.566 129.823 149.358 130.599 150.729 133.335C150.849 133.575 150.887 133.848 150.837 134.112C150.729 134.682 148.05 148.141 135.361 154.818C135.185 154.91 134.994 154.956 134.803 154.956Z" fill="#000072"/>
<path d="M73.8203 111.962C73.8203 111.962 75.8925 117.889 75.2963 126.536L82.124 132.53C82.124 132.53 83.9083 122.083 80.8693 113.407L73.8203 111.962Z" fill="#0096F2"/>
<path d="M76.5333 126.012L81.202 130.111C81.5182 126.777 81.7877 120.242 79.945 114.459L75.5108 113.55C76.0838 115.956 76.8486 120.382 76.5333 126.012ZM82.1204 133.746C81.8339 133.746 81.5516 133.643 81.3288 133.447L74.5013 127.453C74.216 127.203 74.0637 126.832 74.0898 126.451C74.6596 118.188 72.699 112.423 72.6792 112.365C72.5358 111.952 72.6231 111.493 72.9082 111.163C73.1935 110.834 73.6325 110.685 74.0565 110.77L81.1053 112.214C81.5206 112.299 81.8611 112.598 82.0021 113.001C85.1104 121.875 83.3832 132.297 83.3084 132.736C83.2343 133.169 82.9348 133.528 82.5245 133.675C82.3928 133.723 82.256 133.746 82.1204 133.746Z" fill="#000072"/>
<path d="M120.607 111.962C120.607 111.962 118.535 117.889 119.131 126.536L112.304 132.53C112.304 132.53 110.519 122.083 113.558 113.407L120.607 111.962Z" fill="#0096F2"/>
<path d="M114.479 114.458C112.633 120.251 112.904 126.782 113.221 130.112L117.891 126.012C117.576 120.381 118.34 115.956 118.913 113.55L114.479 114.458ZM112.304 133.746C112.168 133.746 112.032 133.722 111.9 133.675C111.49 133.528 111.19 133.169 111.116 132.736C111.041 132.296 109.314 121.874 112.422 113C112.563 112.597 112.904 112.299 113.319 112.214L120.368 110.769C120.793 110.681 121.232 110.833 121.517 111.163C121.802 111.493 121.889 111.953 121.745 112.365C121.713 112.457 119.767 118.213 120.334 126.451C120.361 126.831 120.208 127.202 119.923 127.453L113.095 133.447C112.873 133.642 112.59 133.746 112.304 133.746Z" fill="#000072"/>
<path d="M90.4025 168.979C88.6845 177.492 78.8911 181.387 72.0085 176.169C66.6215 172.088 60.7058 162.754 57.0506 142.287C56.7028 140.325 56.3725 138.259 56.0664 136.087L58.393 133.862L73.817 119.103C73.817 119.103 89.0114 142.838 90.6946 161.032V161.035C90.959 163.853 90.8964 166.537 90.4025 168.979Z" fill="#B11313"/>
<g opacity="0.300003">
<g opacity="0.300003">
<path opacity="0.300003" d="M90.4035 168.978C88.6855 177.491 78.8921 181.386 72.0095 176.168C66.6225 172.087 60.7067 162.753 57.0516 142.286C51.908 139.159 50.1413 131.12 50.1413 131.12C47.9224 120.446 50.4821 110.607 50.4821 110.607C49.995 123.6 55.1061 129.797 57.2142 131.787C57.8016 132.341 58.2121 133.056 58.391 133.848C58.392 133.852 58.393 133.856 58.394 133.861C62.1605 150.676 68.4692 171.161 77.6227 172.628C86.4597 174.042 90.2679 162.427 90.6956 161.034C90.96 163.852 90.8974 166.536 90.4035 168.978Z" fill="#000072"/>
</g>
</g>
<path d="M75.1394 117.968C76.8956 119.898 78.2842 122.05 79.5433 124.274C80.1682 125.389 80.7381 126.532 81.3045 127.677C81.8708 128.823 82.4254 129.974 82.9659 131.133C85.1306 135.765 87.1015 140.502 88.7386 145.384C90.3773 150.259 91.6968 155.297 92.1779 160.541C92.4094 163.159 92.4236 165.838 91.9826 168.52C91.8871 169.179 91.7477 169.886 91.533 170.566C91.3383 171.251 91.0621 171.912 90.763 172.561C90.1388 173.846 89.307 175.031 88.3151 176.057C86.3109 178.087 83.6627 179.456 80.851 179.859C79.4489 180.08 78.0087 180.032 76.6113 179.782C75.2148 179.514 73.8663 179.008 72.6335 178.312C72.0305 177.952 71.4232 177.556 70.8992 177.12L70.1133 176.47C69.848 176.256 69.6201 176.008 69.3722 175.778C69.1329 175.541 68.878 175.316 68.6525 175.068L67.9801 174.321C67.516 173.834 67.1311 173.292 66.7146 172.773C65.1051 170.655 63.8214 168.352 62.6945 166.004C61.5492 163.658 60.6736 161.219 59.8255 158.78C59.0386 156.323 58.3217 153.849 57.732 151.35C57.4406 150.099 57.1276 148.854 56.8898 147.595C56.6448 146.337 56.3513 145.087 56.1733 143.819C55.7789 141.289 55.5938 138.723 55.8108 136.122C55.823 135.974 55.9511 135.865 56.0969 135.878C56.1985 135.886 56.2819 135.952 56.3189 136.04L56.3221 136.048C56.8233 137.257 57.2026 138.477 57.5295 139.704C57.8516 140.931 58.1852 142.151 58.4382 143.386C58.68 144.623 58.9634 145.848 59.2302 147.078C59.4836 148.311 59.8101 149.523 60.1147 150.741C60.7308 153.176 61.468 155.57 62.2671 157.935C63.1241 160.273 64.0047 162.608 65.1243 164.805C66.2211 167.011 67.472 169.127 68.942 171.034C69.3217 171.497 69.6739 171.99 70.0892 172.415L70.6907 173.074C70.8918 173.293 71.1158 173.483 71.3265 173.69C71.544 173.887 71.7454 174.108 71.9752 174.287L72.6541 174.839C73.1039 175.209 73.5635 175.496 74.0434 175.782C75.0125 176.316 76.0566 176.698 77.1359 176.897C78.2163 177.078 79.328 177.112 80.4139 176.928C82.5933 176.603 84.6434 175.51 86.1834 173.936C86.9507 173.145 87.5947 172.233 88.0815 171.239C88.3122 170.736 88.532 170.225 88.6834 169.688C88.8535 169.158 88.9622 168.616 89.05 168.018C89.4409 165.685 89.4448 163.242 89.234 160.805C89.0204 158.365 88.591 155.923 88.0351 153.501C87.4826 151.078 86.792 148.675 86.0234 146.295C84.4827 141.532 82.5999 136.861 80.5187 132.281C79.9991 131.135 79.4651 129.996 78.9195 128.862C78.3767 127.726 77.8052 126.605 77.2757 125.462C76.2063 123.181 75.1991 120.862 74.4043 118.411L74.4018 118.403C74.3266 118.171 74.4519 117.922 74.6813 117.847C74.8494 117.791 75.027 117.844 75.1394 117.968Z" fill="#000072"/>
<path d="M60.4267 157.674C60.102 157.674 59.7781 157.543 59.5406 157.283C59.0892 156.789 59.1191 156.021 59.6077 155.565C60.055 155.148 70.7489 145.332 87.1218 144.097C87.7839 144.043 88.3642 144.55 88.4139 145.22C88.4635 145.889 87.9654 146.473 87.3015 146.523C71.7973 147.693 61.3477 157.255 61.2439 157.352C61.0122 157.567 60.7189 157.674 60.4267 157.674Z" fill="#000072"/>
<path d="M104.02 168.979C105.738 177.492 115.532 181.387 122.414 176.169C127.801 172.088 133.717 162.754 137.372 142.287C137.72 140.325 138.05 138.259 138.356 136.087L136.03 133.862L120.606 119.103C120.606 119.103 105.411 142.838 103.728 161.032V161.035C103.464 163.853 103.526 166.537 104.02 168.979Z" fill="#B11313"/>
<g opacity="0.300003">
<g opacity="0.300003">
<path opacity="0.300003" d="M104.03 168.979C105.748 177.492 115.542 181.387 122.424 176.169C127.811 172.088 133.727 162.754 137.382 142.287C142.526 139.16 144.292 131.121 144.292 131.121C146.511 120.447 143.952 110.608 143.952 110.608C144.439 123.601 139.328 129.798 137.219 131.788C136.632 132.342 136.222 133.057 136.043 133.848C136.042 133.853 136.041 133.857 136.04 133.862C132.273 150.677 125.964 171.162 116.811 172.629C107.974 174.043 104.166 162.428 103.738 161.035C103.474 163.853 103.536 166.537 104.03 168.979Z" fill="#000072"/>
</g>
</g>
<path d="M120.025 118.411C119.23 120.862 118.223 123.181 117.153 125.462C116.624 126.605 116.052 127.726 115.509 128.862C114.964 129.996 114.43 131.135 113.91 132.281C111.829 136.861 109.946 141.532 108.405 146.295C107.637 148.675 106.946 151.078 106.394 153.502C105.838 155.923 105.408 158.365 105.195 160.805C104.984 163.242 104.988 165.685 105.379 168.018C105.467 168.616 105.575 169.158 105.745 169.688C105.897 170.225 106.117 170.736 106.347 171.239C106.834 172.233 107.478 173.145 108.245 173.936C109.785 175.51 111.836 176.603 114.015 176.928C115.101 177.112 116.213 177.077 117.293 176.897C118.372 176.698 119.416 176.316 120.385 175.781C120.865 175.496 121.325 175.209 121.775 174.839L122.454 174.287C122.683 174.108 122.885 173.887 123.102 173.69C123.313 173.483 123.537 173.293 123.738 173.074L124.34 172.415C124.755 171.99 125.107 171.497 125.487 171.034C126.957 169.127 128.208 167.011 129.305 164.805C130.424 162.608 131.305 160.273 132.162 157.935C132.961 155.57 133.698 153.176 134.314 150.741C134.619 149.523 134.945 148.311 135.199 147.078C135.466 145.848 135.749 144.623 135.991 143.386C136.244 142.151 136.577 140.931 136.899 139.704C137.226 138.477 137.606 137.257 138.107 136.048L138.11 136.041C138.166 135.905 138.321 135.84 138.456 135.897C138.551 135.937 138.61 136.026 138.618 136.122C138.835 138.723 138.65 141.289 138.256 143.819C138.078 145.087 137.784 146.337 137.539 147.595C137.301 148.854 136.988 150.099 136.697 151.35C136.107 153.849 135.39 156.323 134.603 158.78C133.755 161.219 132.88 163.658 131.734 166.004C130.607 168.352 129.324 170.655 127.714 172.773C127.298 173.292 126.913 173.834 126.449 174.321L125.776 175.068C125.551 175.316 125.296 175.541 125.057 175.778C124.809 176.008 124.581 176.256 124.316 176.47L123.53 177.12C123.006 177.556 122.398 177.952 121.795 178.312C120.563 179.008 119.214 179.514 117.818 179.782C116.42 180.032 114.98 180.08 113.578 179.859C110.766 179.456 108.118 178.087 106.114 176.057C105.122 175.031 104.29 173.846 103.666 172.561C103.367 171.912 103.091 171.251 102.896 170.566C102.681 169.886 102.542 169.179 102.446 168.52C102.005 165.838 102.02 163.159 102.251 160.541C102.732 155.297 104.052 150.259 105.69 145.384C107.327 140.503 109.298 135.765 111.463 131.133C112.003 129.974 112.558 128.823 113.124 127.677C113.691 126.532 114.261 125.389 114.886 124.274C116.145 122.05 117.533 119.898 119.289 117.968C119.453 117.788 119.729 117.776 119.907 117.941C120.038 118.062 120.079 118.243 120.027 118.403L120.025 118.411Z" fill="#000072"/>
<path d="M134.003 157.675C133.71 157.675 133.417 157.568 133.185 157.352C133.081 157.256 122.632 147.693 107.128 146.524C106.464 146.474 105.966 145.89 106.015 145.22C106.065 144.55 106.644 144.044 107.307 144.097C123.68 145.332 134.374 155.148 134.821 155.565C135.31 156.021 135.34 156.791 134.888 157.284C134.65 157.544 134.327 157.675 134.003 157.675Z" fill="#000072"/>
<path d="M97.2304 107.352C128.761 107.352 141.281 93.4545 141.281 93.4545C141.281 93.4545 141.806 94.6511 142.062 96.3519C142.485 99.1678 141.3 101.993 139.043 103.704C134.082 107.464 121.449 114.63 97.214 114.63C72.9794 114.63 60.3462 107.464 55.3849 103.704C53.1279 101.993 51.9427 99.1678 52.3661 96.3519C52.6218 94.6511 53.1471 93.4545 53.1471 93.4545C53.1471 93.4545 65.6667 107.352 97.1976 107.352" fill="#751313"/>
<g opacity="0.300003">
<g opacity="0.300003">
<path opacity="0.300003" d="M141.945 95.6999C141.539 97.4662 140.523 99.0712 139.041 100.195C134.08 103.955 121.447 111.121 97.212 111.121C72.9774 111.121 60.3442 103.955 55.3829 100.195C53.9009 99.0712 52.8851 97.4662 52.4793 95.6999C52.4375 95.9074 52.3983 96.1247 52.3642 96.3518C51.9407 99.1679 53.1259 101.993 55.3829 103.704C60.3442 107.464 72.9774 114.63 97.212 114.63C121.447 114.63 134.08 107.464 139.041 103.704C141.298 101.993 142.483 99.1679 142.06 96.3518C142.026 96.1247 141.987 95.9074 141.945 95.6999Z" fill="#000072"/>
</g>
</g>
<path d="M97.2153 115.847C73.0131 115.847 60.1661 108.848 54.6622 104.676C52.0233 102.676 50.6872 99.4164 51.1754 96.1699C51.4521 94.3288 52.0218 93.017 52.0459 92.9622C52.2111 92.5859 52.5533 92.3193 52.9558 92.2539C53.3575 92.1874 53.7661 92.332 54.0405 92.6363C54.1615 92.7696 66.6598 106.136 97.199 106.136V108.569C71.1158 108.569 57.8848 99.2855 53.7219 95.6703C53.6619 95.9369 53.6056 96.2268 53.5593 96.5345C53.2045 98.8948 54.182 101.27 56.1106 102.731C61.3739 106.721 73.7133 113.414 97.2153 113.414C120.717 113.414 133.057 106.721 138.32 102.731C140.249 101.27 141.226 98.8952 140.871 96.5345C140.825 96.2268 140.769 95.9369 140.709 95.6703C136.546 99.2855 123.315 108.569 97.2315 108.569V106.136C127.875 106.136 140.268 92.7713 140.39 92.6363C140.664 92.332 141.073 92.1881 141.475 92.2539C141.877 92.3193 142.219 92.5859 142.385 92.9622C142.409 93.017 142.978 94.3288 143.255 96.1699C143.743 99.4164 142.407 102.676 139.769 104.676C134.265 108.848 121.418 115.847 97.2153 115.847Z" fill="#000072"/>
<g opacity="0.3">
<path d="M1.90094 15.5803C1.90094 15.5803 2.57681 18.5112 0.335938 21.7836C0.335938 21.7836 3.99692 21.6708 5.75758 24.0957C5.75758 24.0957 5.17067 20.5711 7.68586 17.8925C7.68586 17.8925 4.24843 18.5128 1.90094 15.5803Z" fill="white"/>
</g>
<path d="M53.1738 103.74L72.615 148.393" stroke="#000072" stroke-miterlimit="10"/>
<path d="M120.969 148.392L140.822 103.739" stroke="#000072" stroke-miterlimit="10"/>
<path fill-rule="evenodd" clip-rule="evenodd" d="M95.7878 121.974C95.7797 122.082 95.715 122.178 95.6719 122.284C95.6302 122.386 95.592 122.496 95.556 122.604C95.462 122.884 95.3742 123.16 95.3822 123.523C95.7028 123.566 96.107 123.534 96.3962 123.493C96.5543 123.564 96.6558 123.674 96.8018 123.753C96.7742 123.617 96.906 123.592 97.019 123.553C96.9688 123.612 96.8909 123.651 96.9176 123.763C96.9836 123.793 96.9942 123.713 97.0481 123.703C97.1226 123.761 97.2171 123.758 97.2943 123.703C97.3497 123.711 97.3347 123.768 97.3957 123.773C97.4817 123.695 97.3589 123.611 97.3232 123.553C97.4307 123.592 97.5531 123.621 97.5406 123.743C97.6576 123.694 97.8001 123.576 97.9171 123.493C98.2189 123.537 98.6047 123.557 98.9601 123.533C98.9482 122.925 98.7342 122.457 98.5256 121.984C98.5834 121.979 98.5829 122.032 98.598 122.054C98.8135 122.376 99.0052 122.743 99.163 123.133C99.1858 123.19 99.2244 123.267 99.2498 123.343C99.2721 123.41 99.3191 123.526 99.3078 123.563C99.2829 123.645 99.0867 123.673 99.047 123.743C98.9264 123.645 98.579 123.673 98.2503 123.663C98.1572 123.66 98.0323 123.642 97.9752 123.653C97.8488 123.678 97.7936 123.805 97.7289 123.873C97.9074 123.881 98.0483 123.762 98.2069 123.753C98.3074 123.747 98.4545 123.799 98.5834 123.823C98.957 123.891 99.3735 123.949 99.7134 124.023C99.7339 123.219 99.4347 122.55 99.0326 122.004C99.4322 122.385 99.7013 122.83 99.9017 123.353C99.9363 123.444 99.966 123.53 99.9887 123.623C100.02 123.754 100.022 123.915 100.119 124.013C99.9988 124.103 99.8543 124.176 99.7278 124.262C99.3719 124.116 98.6843 123.905 98.1055 123.943C97.967 123.952 97.8444 123.999 97.7433 124.063C97.9202 124.111 98.0426 124.116 98.2793 124.113C98.3381 124.112 98.4232 124.095 98.4676 124.103C98.5179 124.111 98.5986 124.183 98.6704 124.232C99.0887 124.521 99.463 124.732 99.9596 124.962C100.115 125.033 100.202 125.106 100.38 125.012C100.409 125.96 100.044 126.66 99.5975 127.3C99.5454 127.374 99.5124 127.461 99.4237 127.52C99.7595 126.973 100.018 126.323 100.018 125.561C100.018 125.481 100.04 125.382 100.018 125.312C99.9861 125.212 99.7582 125.106 99.6264 125.022C99.2521 124.784 98.9544 124.616 98.54 124.392C98.4588 124.348 98.3899 124.289 98.3228 124.272C98.2522 124.255 98.1409 124.251 98.062 124.242C97.9633 124.232 97.8684 124.229 97.7868 124.222C97.9469 124.341 98.2009 124.488 98.4241 124.602C98.4648 124.627 98.5074 124.593 98.5546 124.592C98.6075 125.706 98.4877 126.797 98.0331 127.61C97.9245 127.804 97.8043 127.994 97.613 128.139C98.2307 127.37 98.2772 126.049 98.1489 124.892C98.2802 124.813 98.2232 124.748 98.1055 124.652C97.9768 124.547 97.7483 124.394 97.5985 124.342C97.5879 124.394 97.6137 124.445 97.6419 124.492C97.6702 124.539 97.733 124.58 97.7433 124.622C97.7652 124.712 97.7124 124.908 97.6853 125.012C97.5958 125.356 97.407 125.735 97.2363 125.991C97.1762 125.986 97.2184 125.91 97.1784 125.891C97.1141 125.893 97.1531 125.967 97.1205 125.991C96.921 125.756 96.7507 125.368 96.6569 125.012C96.6234 124.885 96.5713 124.731 96.599 124.622C96.6209 124.535 96.7565 124.456 96.7438 124.352C96.6112 124.373 96.4876 124.464 96.3817 124.542C96.2762 124.62 96.1666 124.703 96.092 124.792C96.1009 124.836 96.1627 124.843 96.1789 124.882C96.0839 126.053 96.087 127.371 96.7293 128.129C96.6616 128.123 96.6301 128.064 96.599 128.029C96.001 127.37 95.8403 126.352 95.7733 125.302C95.7585 125.069 95.7433 124.842 95.7878 124.612C95.8001 124.564 95.8746 124.635 95.9181 124.602C96.1468 124.483 96.3527 124.349 96.57 124.222C96.3808 124.243 96.1752 124.236 96.0051 124.282C95.8574 124.323 95.6958 124.434 95.556 124.512C95.1308 124.751 94.6828 125.011 94.3247 125.282C94.2516 126.173 94.5477 126.892 94.9041 127.52C94.3899 126.828 93.9128 126.059 93.9626 125.012C94.1585 125.14 94.4569 124.931 94.6144 124.852C95.0531 124.631 95.5214 124.345 95.8603 124.103C96.1056 124.127 96.3937 124.107 96.599 124.073C96.3431 123.847 95.687 123.96 95.2953 124.043C95.0324 124.098 94.7871 124.177 94.6289 124.262C94.4785 124.193 94.3635 124.099 94.2233 124.023C94.3259 123.845 94.3478 123.546 94.4262 123.343C94.6176 122.847 94.9163 122.408 95.2807 122.004C95.2711 122.081 95.194 122.147 95.1504 122.214C94.8329 122.701 94.624 123.305 94.6144 124.013C94.9492 123.96 95.3488 123.896 95.7443 123.823C95.8733 123.799 96.0068 123.75 96.1064 123.753C96.2674 123.757 96.4188 123.871 96.599 123.873C96.5562 123.779 96.4745 123.712 96.3817 123.653C96.0833 123.676 95.7501 123.64 95.4836 123.673C95.4564 123.676 95.4208 123.687 95.3822 123.703C95.3857 123.701 95.2961 123.743 95.3098 123.743C95.2495 123.742 95.1024 123.598 95.0346 123.583C95.1737 122.97 95.4879 122.477 95.7878 121.974Z" fill="#000072"/>
<path fill-rule="evenodd" clip-rule="evenodd" d="M97.2168 115.847V133.099V115.847Z" fill="#000072"/>
<path d="M97.2168 115.847V133.099" stroke="#000072" stroke-miterlimit="10"/>
<path d="M91.8781 115.729C91.8781 115.729 92.818 129.862 91.4414 132.364" stroke="#000072" stroke-miterlimit="10"/>
<path d="M87.6524 115.458C87.6524 115.458 89.772 121.997 86.709 130.83" stroke="#000072" stroke-miterlimit="10"/>
<path d="M102.087 115.847C102.087 115.847 101.104 128.37 102.525 132.633" stroke="#000072" stroke-miterlimit="10"/>
<path d="M107.101 115.458C107.101 115.458 104.854 127.875 108.191 130.83" stroke="#000072" stroke-miterlimit="10"/>
<path d="M83.2617 117.941C83.2617 117.941 85.3782 115.903 88.1579 117.941C88.1579 117.941 89.6067 115.918 92.0161 118.219C92.0161 118.219 93.3301 115.7 97.1978 117.941C97.1978 117.941 98.8302 115.835 101.759 117.941C101.759 117.941 104.059 115.603 106.754 117.825C106.754 117.825 109.157 115.186 111.238 117.543" stroke="#000072" stroke-miterlimit="10"/>
<path d="M96.9067 121.178C96.831 121.124 96.7558 121.073 96.6813 121.025C94.047 119.322 92.1355 121.226 92.1355 121.226C90.1814 119.179 88.3692 121.226 88.3692 121.226C85.3316 117.65 83.6914 121.226 83.6914 121.226" stroke="#000072" stroke-miterlimit="10"/>
<path d="M96.832 121.217C96.832 121.217 99.2333 119.274 101.759 121.217C101.759 121.217 104.214 118.812 106.362 121.324C106.362 121.324 109.552 118.848 110.742 121.274" stroke="#000072" stroke-miterlimit="10"/>
<path d="M83.6914 127.197C83.6914 127.197 85.6404 123.958 87.6915 127.472C87.6915 127.472 91.3702 124.908 92.153 128.489C92.153 128.489 95.199 126.926 97.328 129.498C97.328 129.498 99.5836 126.836 102.196 128.866C102.196 128.866 103.941 124.795 106.893 127.936C106.893 127.936 108.713 124.541 110.741 126.478" stroke="#000072" stroke-miterlimit="10"/>
<path d="M83.4922 129.134C83.4922 129.134 86.0303 126.537 87.1402 129.498C87.1402 129.498 90.796 127.831 91.8167 130.83C91.8167 130.83 95.5945 128.831 97.1671 132.029C97.1671 132.029 99.4023 129.904 102.089 131.348C102.089 131.348 104.559 127.6 107.417 129.812C107.417 129.812 109.451 126.307 110.669 128.489" stroke="#000072" stroke-miterlimit="10"/>
<path d="M61.2441 157.352C61.2441 157.352 72.4934 145.421 86.7123 146.573L89.9446 156.59C89.9446 156.59 86.4508 171.462 64.4255 166.451L61.2441 157.352Z" fill="#000072"/>
<path d="M61.2441 157.352C61.2441 157.352 72.4934 145.421 86.7123 146.573L89.9446 156.59C89.9446 156.59 86.4508 171.462 64.4255 166.451L61.2441 157.352Z" stroke="#000072" stroke-miterlimit="10"/>
<path d="M103.967 159.051L107.279 144.841L122.888 149.629L132.189 154.957V159.051L130.005 166.451C130.005 166.451 114.378 171.641 103.967 159.051Z" fill="#000072"/>
<path d="M103.967 159.051L107.279 144.841L122.888 149.629L132.189 154.957V159.051L130.005 166.451C130.005 166.451 114.378 171.641 103.967 159.051Z" stroke="#000072" stroke-miterlimit="10"/>
<path d="M24.9727 140.125L36.9893 171.562" stroke="#000072" stroke-miterlimit="10"/>
<path d="M21.8516 144.094C21.8516 144.094 23.9279 158.646 32.9919 171.325" stroke="#000072" stroke-miterlimit="10"/>
<path d="M29.8516 138.915C29.8516 138.915 39.2372 154.992 40.6873 171.815" stroke="#000072" stroke-miterlimit="10"/>
<path d="M35.873 140.125C35.873 140.125 41.5654 151.574 44.7747 171.562" stroke="#000072" stroke-miterlimit="10"/>
<path d="M20.5781 150.884C20.5781 150.884 20.6018 147.664 22.8704 148.912C22.8704 148.912 23.7145 143.282 27.4226 146.857C27.4226 146.857 27.563 141.14 32.7451 144.568C32.7451 144.568 34.2232 140.372 37.3273 144.094C37.3273 144.094 38.8667 143.235 39.8573 145.171" stroke="#000072" stroke-miterlimit="10"/>
<path d="M22.2148 146.062C22.2148 146.062 23.0104 141.897 26.1775 143.277C26.1775 143.277 26.8045 139.854 30.981 140.992C30.981 140.992 31.5955 138.754 36.5512 141.615" stroke="#000072" stroke-miterlimit="10"/>
<path d="M21.0195 152.597C21.0195 152.597 21.1944 149.37 23.6137 151.615C23.6137 151.615 24.376 146.028 28.6028 149.628C28.6028 149.628 28.716 144.158 33.6345 147.25C33.6345 147.25 35.4442 144.195 38.5982 146.856C38.5982 146.856 39.1614 145.266 40.7353 146.856" stroke="#000072" stroke-miterlimit="10"/>
<path d="M21.0195 155.365C21.0195 155.365 22.0014 152.263 24.688 154.956C24.688 154.956 26.3321 149.89 29.8492 153.318C29.8492 153.318 31.2661 146.556 35.5804 151.2C35.5804 151.2 36.2514 146.785 39.6827 150.052C39.6827 150.052 39.9431 147.34 41.7521 149.517" stroke="#000072" stroke-miterlimit="10"/>
<path d="M21.8516 157.709C21.8516 157.709 22.7652 155.153 25.4272 156.988C25.4272 156.988 28.3215 152.954 30.9776 155.843C30.9776 155.843 33.8279 151.501 36.5478 154.801C36.5478 154.801 37.9625 150.727 40.7598 153.563C40.7598 153.563 41.7963 152.044 42.6336 153.358" stroke="#000072" stroke-miterlimit="10"/>
<path d="M22.8184 160.717C22.8184 160.717 24.4274 157.933 26.4846 159.595C26.4846 159.595 28.2872 156.422 32.2152 159.066C32.2152 159.066 34.0845 154.77 37.9309 158.014C37.9309 158.014 39.3218 154.359 41.7568 157.673C41.7568 157.673 41.766 154.126 43.4708 155.843" stroke="#000072" stroke-miterlimit="10"/>
<path d="M23.998 164.228V163.334C23.998 163.334 25.076 160.078 27.6569 162.202C27.6569 162.202 30.3218 159.121 33.1415 161.498C33.1415 161.498 36.0554 157.65 38.6913 160.718C38.6913 160.718 40.2784 157.354 42.636 160.705" stroke="#000072" stroke-miterlimit="10"/>
<path d="M26.0039 165.319C26.0039 165.319 26.1038 163.586 28.6607 164.227C28.6607 164.227 31.4014 162.132 34.1264 164.085C34.1264 164.085 36.0491 160.644 39.312 163.252C39.312 163.252 41.5714 160.571 43.1174 162.842" stroke="#000072" stroke-miterlimit="10"/>
<path d="M27.4258 167.482C27.4258 167.482 28.4135 165.967 30.2209 167.042C30.2209 167.042 32.5675 164.745 35.1148 166.656C35.1148 166.656 36.8869 163.947 39.868 165.896C39.868 165.896 41.7581 163.426 43.645 165.32" stroke="#000072" stroke-miterlimit="10"/>
<path d="M29.3848 169.019C29.3848 169.019 29.6948 167.414 31.3901 168.948C31.3901 168.948 33.3706 167.665 35.8746 169.019C35.8746 169.019 38.6057 167.291 40.3254 168.651C40.3254 168.651 42.5614 166.956 44.0472 168.574" stroke="#000072" stroke-miterlimit="10"/>
<path d="M32.2441 170.14C32.2441 170.14 33.5612 168.745 36.5494 170.416C36.5494 170.416 38.1895 169.406 39.6917 169.762C39.9063 169.813 40.1181 169.892 40.3219 170.005" stroke="#000072" stroke-miterlimit="10"/>
<path d="M40.5488 170.425C40.5488 170.425 42.0682 169.088 44.6492 170.009" stroke="#000072" stroke-miterlimit="10"/>
<path d="M43.4698 155.374C43.0164 156.414 44.7756 172.772 44.7756 172.772H66.7181L66.2509 171.562L61.2461 161.929L58.1134 152.881C51.0146 151.865 44.0465 135.092 44.0465 135.092L39.1055 140.394L40.3248 143.277L42.6381 148.671L43.4698 155.374Z" fill="#000072"/>
<path d="M168.552 139.364L157.811 171.562" stroke="#000072" stroke-miterlimit="10"/>
<path d="M171.407 143.294C171.407 143.294 169.497 163.84 160.533 172.055" stroke="#000072" stroke-miterlimit="10"/>
<path d="M164.414 139.168C164.414 139.168 157.14 156.796 153.686 171.758" stroke="#000072" stroke-miterlimit="10"/>
<path d="M158.371 140.713C158.371 140.713 153.077 150.73 150.33 173.62" stroke="#000072" stroke-miterlimit="10"/>
<path d="M173.191 148.723C173.191 148.723 172.612 145.874 170.776 147.792C170.776 147.792 170.009 142.701 166.39 145.844C166.39 145.844 165.368 141.505 162.191 144.84C162.191 144.84 159.718 140.693 156.638 144.84C156.638 144.84 156.002 143.79 154.512 145.171" stroke="#000072" stroke-miterlimit="10"/>
<path d="M173.377 151.604C173.377 151.604 172.697 148.81 170.193 150.884C170.193 150.884 168.737 147.382 165.128 149.628C165.128 149.628 164.281 146.081 160.53 148.391C160.53 148.391 159.421 145.691 155.685 147.61C155.685 147.61 154.811 145.902 153.246 147.761" stroke="#000072" stroke-miterlimit="10"/>
<path d="M173.381 154.956C173.381 154.956 171.951 151.947 169.508 153.896C169.508 153.896 167.225 150.633 163.926 153.239C163.926 153.239 162.678 150.058 159.506 152.229C159.506 152.229 157.883 148.722 154.515 151.201C154.515 151.201 153.898 149.352 151.449 150.884" stroke="#000072" stroke-miterlimit="10"/>
<path d="M172.788 157.675C172.788 157.675 171.945 154.699 168.611 157.167C168.611 157.167 166.339 153.348 162.946 156.175C162.946 156.175 161.479 152.284 158.369 155.463C158.369 155.463 157.389 152.297 153.686 154.703C153.686 154.703 153.144 152.225 151.564 154.351C149.984 156.477 151.146 154.311 151.146 154.311" stroke="#000072" stroke-miterlimit="10"/>
<path d="M171.891 160.628C171.891 160.628 170.684 157.306 167.71 159.914C167.71 159.914 165.85 157.202 162.029 158.915C162.029 158.915 159.719 156.116 157.041 158.914C157.041 158.914 155.217 156.069 152.823 158.439C152.823 158.439 151.89 153.771 149.639 158.282" stroke="#000072" stroke-miterlimit="10"/>
<path d="M170.065 162.931C170.065 162.931 169.992 159.896 166.783 162.337C166.783 162.337 164.669 159.36 160.947 162.159C160.947 162.159 158.935 159.096 156.213 162.333C156.213 162.333 154.359 159.364 152.059 162.238C152.059 162.238 151.987 157.289 148.883 161.169" stroke="#000072" stroke-miterlimit="10"/>
<path d="M168.553 165.5C168.553 165.5 168.076 163.844 165.513 165.123C165.513 165.123 162.729 163.014 159.978 165.069C159.978 165.069 158.39 162.816 155.484 164.835C155.484 164.835 153.092 162.731 151.448 164.747C151.448 164.747 151.593 160.984 148.105 163.873" stroke="#000072" stroke-miterlimit="10"/>
<path d="M166.708 167.51C166.708 167.51 166.314 165.641 164.186 167.51C164.186 167.51 161.769 165.871 159.051 167.851C159.051 167.851 156.377 166.141 154.656 167.851C154.656 167.851 152.813 165.329 150.862 167.851C150.862 167.851 150.265 164.519 148.381 167.265" stroke="#000072" stroke-miterlimit="10"/>
<path d="M165.079 168.472C165.079 168.472 164.196 167.657 163.311 168.837C163.311 168.837 159.777 167.789 158.367 169.893C158.367 169.893 156.849 168.224 154.131 169.893C154.131 169.893 152.802 167.428 150.811 169.893C150.811 169.893 149.713 166.616 147.656 169.893" stroke="#000072" stroke-miterlimit="10"/>
<path d="M137.041 152.616L144.093 145.759L149.64 136.266L150.327 134.159L154.983 139.364L155.348 141.95L152.824 144.84L151.447 148.392L150.86 152.616V154.885L150.812 156.399C150.812 156.399 148.403 167.853 149.64 172.361L128.162 172.898L127.461 171.562L130.969 164.686L134.82 155.565L137.041 152.616Z" fill="#000072"/>
<path d="M133.1 108.152C133.1 108.152 115.911 141.805 113.98 151.201" stroke="#000072" stroke-miterlimit="10"/>
<path d="M127.615 110.736C127.615 110.736 110.812 144.669 112.298 147.54" stroke="#000072" stroke-miterlimit="10"/>
<path d="M143.658 108.883C143.658 108.883 130.883 143.988 124.941 152.191" stroke="#000072" stroke-miterlimit="10"/>
<path d="M120.609 115.847C120.609 115.847 124.497 111.696 125.458 115.161C125.458 115.161 128.068 111.283 130.194 113.939C130.194 113.939 135.259 109.825 136.07 114.428C136.07 114.428 140.675 110.767 141.059 115.847C141.059 115.847 142.731 115.37 142.69 119.637C142.69 119.637 144.192 122.952 143.757 124.24" stroke="#000072" stroke-miterlimit="10"/>
<path d="M127.016 111.962C127.016 111.962 130.06 109.188 131.797 110.736C131.797 110.736 135.893 106.548 138.028 110.032C138.028 110.032 142.078 109.31 142.15 112.962C142.15 112.962 143.79 115.038 143.662 115.847C143.662 115.847 141.785 128.573 138.195 136.135C138.195 136.135 133.434 152.614 128.586 153.933" stroke="#000072" stroke-miterlimit="10"/>
<path d="M120.023 118.403C120.023 118.403 122.457 115.338 123.9 118.403C123.9 118.403 127.469 114.932 127.613 118.403C127.613 118.403 133.247 115.655 133.99 119.103C133.99 119.103 138.149 116.112 138.99 121.226C138.99 121.226 142.988 119.717 141.72 124.921C141.72 124.921 143.939 124.335 143.52 127.608" stroke="#000072" stroke-miterlimit="10"/>
<path d="M117.832 122.234C117.832 122.234 121.368 118.901 121.814 122.823C121.814 122.823 125.238 119.459 125.425 123.712C125.425 123.712 131.543 120.542 131.404 124.921C131.404 124.921 135.678 123.546 136.445 127.667C136.445 127.667 140.137 126.425 140.521 129.901C140.521 129.901 143.244 129.73 142.988 131.95" stroke="#000072" stroke-miterlimit="10"/>
<path d="M115.951 126.478C115.951 126.478 118.676 121.888 120.332 126.451C120.332 126.451 122.536 124.445 123.537 127.287C123.537 127.287 128.897 125.483 129.366 129.498C129.366 129.498 132.993 127.199 134.802 130.83C134.802 130.83 139.008 130.129 139.62 132.633C139.62 132.633 141.538 132.031 142.226 134.159" stroke="#000072" stroke-miterlimit="10"/>
<path d="M114.879 129.138C114.879 129.138 117.401 127.808 118.152 130.83C118.152 130.83 120.764 128.525 121.812 131.29C121.812 131.29 126.088 129.64 127.459 133.099C127.459 133.099 132.091 131.327 133.597 134.59C133.597 134.59 136.738 133.747 138.452 135.897C138.452 135.897 140.536 135.108 140.82 137.254" stroke="#000072" stroke-miterlimit="10"/>
<path d="M113.074 132.688C113.074 132.688 116.57 130.067 116.564 134.463C116.564 134.463 119.601 132.295 120.025 135.002C120.025 135.002 124.752 133.619 125.92 137.254C125.92 137.254 129.856 134.361 131.799 138.777C131.799 138.777 135.849 136.59 136.767 140.195" stroke="#000072" stroke-miterlimit="10"/>
<path d="M111.783 136.897C111.783 136.897 114.485 133.957 115.387 137.254C115.387 137.254 117.874 135.131 118.792 138.145C118.792 138.145 123.142 136.928 124.612 140.195C124.612 140.195 128.517 138.504 130.418 141.862C130.418 141.862 133.794 139.691 135.538 142.997" stroke="#000072" stroke-miterlimit="10"/>
<path d="M110.57 139.672C110.57 139.672 113.339 137.943 114.21 140.195C114.21 140.195 116.635 138.504 117.569 141.017C117.569 141.017 122.325 140.029 123.063 142.997C123.063 142.997 127.405 141.744 129.091 144.701C129.091 144.701 132.389 143.522 134.299 145.86C134.299 145.86 135.072 145.393 135.071 147.54" stroke="#000072" stroke-miterlimit="10"/>
<path d="M109.516 142.285C109.516 142.285 112.474 140.754 113.074 142.717C113.074 142.717 116.249 141.433 116.505 143.629C116.505 143.629 121.888 142.4 122.208 145.604C122.208 145.604 126.975 144.163 127.679 147.54C127.679 147.54 131.811 145.825 132.725 149.629C132.725 149.629 134.337 148.858 134.804 151.201" stroke="#000072" stroke-miterlimit="10"/>
<path d="M58.6035 105.702C58.6035 105.702 73.9259 131.114 77.5065 147.54" stroke="#000072" stroke-miterlimit="10"/>
<path d="M67.3945 110.607C67.3945 110.607 78.8416 131.765 82.6422 145.768" stroke="#000072" stroke-miterlimit="10"/>
<path d="M51.2344 109.735C51.2344 109.735 64.5785 147.907 68.9483 150.884" stroke="#000072" stroke-miterlimit="10"/>
<path d="M50.7012 116.86C50.7012 116.86 61.4938 150.876 64.7133 152.616" stroke="#000072" stroke-miterlimit="10"/>
<path d="M52.1953 111.272C52.1953 111.272 52.493 107.279 55.7173 109.591C55.7173 109.591 57.002 106.731 60.6546 109.227C60.6546 109.227 61.6243 107.695 64.7096 108.942" stroke="#000072" stroke-miterlimit="10"/>
<path d="M51.4258 119.103C51.4258 119.103 51.7148 116.293 53.99 117.392C53.99 117.392 54.6943 113.498 58.6098 116.22C58.6098 116.22 59.3363 112.124 63.6583 114.631C63.6583 114.631 66.3744 111.042 69.5025 114.631C69.5025 114.631 71.7914 112.485 73.463 114.631" stroke="#000072" stroke-miterlimit="10"/>
<path d="M50.7012 115.729C50.7012 115.729 51.7048 114.019 52.9104 114.63C52.9104 114.63 54.2102 110.911 57.0171 112.568C57.0171 112.568 58.7958 109.872 62.0058 111.621C62.0058 111.621 65.3478 110.069 67.3961 111.031" stroke="#000072" stroke-miterlimit="10"/>
<path d="M50.3301 124.43C50.3301 124.43 50.7159 122.539 52.9052 123.628C52.9052 123.628 53.207 120.769 55.7158 122.246C55.7158 122.246 56.3593 118.322 60.8243 120.752C60.8243 120.752 61.2751 116.173 66.0138 119.102C66.0138 119.102 68.0979 115.591 71.2545 118.123C71.2545 118.123 71.6063 116.124 74.0249 117.824" stroke="#000072" stroke-miterlimit="10"/>
<path d="M50.7012 128.846C50.7012 128.846 51.7 125.717 54.2494 127.608C54.2494 127.608 54.7766 124.271 57.3974 126.478C57.3974 126.478 59.3391 123.411 62.1826 124.92C62.1826 124.92 64.741 120.76 68.0583 123.144C68.0583 123.144 70.4671 119.939 73.0676 121.831C73.0676 121.831 73.1602 120.609 75.6215 121.226" stroke="#000072" stroke-miterlimit="10"/>
<path d="M51.4375 131.95C51.4375 131.95 52.1237 128.733 55.3547 130.83C55.3547 130.83 56.855 128.629 58.8096 130.111C58.8096 130.111 60.4911 126.389 63.9651 128.53C63.9651 128.53 66.2971 125.141 70.0428 127.275C70.0428 127.275 71.7545 124.445 75.0519 126.066C75.0519 126.066 74.772 124.403 77.2761 125.462" stroke="#000072" stroke-miterlimit="10"/>
<path d="M52.7051 135.092C52.7051 135.092 53.4573 132.269 56.0651 133.686C56.0651 133.686 57.619 130.732 59.9793 132.959C59.9793 132.959 61.0198 129.203 65.4356 131.771C65.4356 131.771 67.5427 128.492 71.4246 130.096C71.4246 130.096 72.9659 126.995 76.441 128.892C76.441 128.892 77.1633 127.353 78.9179 128.583" stroke="#000072" stroke-miterlimit="10"/>
<path d="M52.9082 137.895C52.9082 137.895 53.9665 134.28 56.8572 135.092C56.8572 135.092 59.4545 133.682 60.7637 134.973C60.7637 134.973 64.498 132.143 66.4155 134.159C66.4155 134.159 70.274 131.082 72.6123 133.042C72.6123 133.042 75.2472 130.81 77.8265 132.364C77.8265 132.364 79.2397 130.792 80.9853 131.95" stroke="#000072" stroke-miterlimit="10"/>
<path d="M82.6439 136.266C82.6439 136.266 79.9564 132.684 79.3326 136.054C79.3326 136.054 74.745 133.281 74.3124 137.254C74.3124 137.254 69.806 133.84 68.221 138.301C68.221 138.301 63.6129 135.745 62.4416 139.344C62.4416 139.344 59.5028 136.243 59.0488 140.195C59.0488 140.195 57.5144 139.604 57.2461 141.138" stroke="#000072" stroke-miterlimit="10"/>
<path d="M83.8537 139.344C83.8537 139.344 81.3689 136.576 80.7079 139.714C80.7079 139.714 77.0555 137.29 75.5107 140.568C75.5107 140.568 71.5718 138.56 70.0412 142.285C70.0412 142.285 65.8278 139.915 64.7099 144C64.7099 144 61.8162 142.819 60.8262 145.768C60.8262 145.768 59.3384 145.37 58.6035 147.54" stroke="#000072" stroke-miterlimit="10"/>
<path d="M84.4358 141.716C84.4358 141.716 82.5607 138.298 81.6847 142.554C81.6847 142.554 79.3576 141.094 76.6328 144.094C76.6328 144.094 73.1475 142.889 71.2344 145.217C71.2344 145.217 68.4739 144.451 66.471 146.494C66.3609 146.606 66.2533 146.727 66.1484 146.856" stroke="#000072" stroke-miterlimit="10"/>
<path d="M66.2496 146.727C66.2496 146.727 63.6753 146.491 62.338 148.912C62.338 148.912 60.4804 148.992 59.6227 151.201C58.7651 153.409 59.2203 150.884 59.2203 150.884" stroke="#000072" stroke-miterlimit="10"/>
<path fill-rule="evenodd" clip-rule="evenodd" d="M96.9839 15.9146C126.553 15.9146 149.3 46.9659 149.3 72.8939C149.3 98.8223 107.607 109.3 96.9839 109.811C86.3601 110.322 42.5 98.0619 42.5 72.1335C42.5 46.2051 67.4146 15.9146 96.9839 15.9146Z" fill="#FF850B"/>
<path d="M96.9838 17.1756C67.4953 17.1756 43.7496 47.2409 43.7496 72.1337C43.7496 78.6067 46.6653 84.6939 52.4162 90.2261C65.2259 102.549 88.5974 108.564 96.3249 108.565C96.5372 108.565 96.7362 108.561 96.9244 108.552C102.523 108.282 115.421 105.375 126.567 99.7559C136.368 94.8149 148.05 86.1439 148.05 72.8939C148.05 47.1274 125.743 17.1756 96.9838 17.1756ZM96.3565 111.086C88.0669 111.086 64.1768 105.024 50.6916 92.0513C44.4269 86.0245 41.25 79.3232 41.25 72.1337C41.25 59.1554 47.4132 44.692 57.7365 33.4443C68.6966 21.5028 83.0016 14.6538 96.9838 14.6538C111.053 14.6538 124.617 21.4744 135.178 33.8591C144.803 45.1473 150.55 59.7397 150.55 72.8939C150.55 84.4016 142.643 94.4704 127.684 102.012C116.213 107.795 102.861 110.791 97.0432 111.071C96.8286 111.081 96.5986 111.086 96.3565 111.086Z" fill="#000072"/>
<g opacity="0.5">
<g opacity="0.5">
<path opacity="0.5" fill-rule="evenodd" clip-rule="evenodd" d="M96.9769 15.9151C115.15 15.9151 130.744 27.6459 140.066 42.7059C140.163 43.1926 140.256 43.6812 140.338 44.1738C131.827 31.5868 118.557 23.2868 103.861 21.0478C104.804 21.407 105.35 21.8335 105.35 22.2913C105.35 23.5711 101.078 24.6085 95.8082 24.6085C90.539 24.6085 86.267 23.5711 86.267 22.2913C86.267 21.8335 86.8123 21.407 87.7552 21.0478C73.0585 23.2873 59.79 31.5878 51.2793 44.1738L51.3263 43.9085C61.1398 28.2469 78.1103 15.9151 96.9769 15.9151Z" fill="white"/>
</g>
</g>
<path fill-rule="evenodd" clip-rule="evenodd" d="M147.894 80.8607C140.541 100.997 106.442 109.356 96.9819 109.811C87.6189 110.261 52.4462 100.79 44.2285 80.7868C44.8586 69.8916 50.3447 66.9138 60.4905 72.2381C64.6628 74.4272 68.9072 76.7106 72.2703 74.972C91.4671 65.0447 103.189 66.9162 116.328 74.972C122.473 78.7394 128.47 73.1196 132.232 71.4063C144.214 65.9478 149.711 69.7655 147.894 80.8607Z" fill="white"/>
<g opacity="0.300003">
<g opacity="0.300003">
<path opacity="0.300003" fill-rule="evenodd" clip-rule="evenodd" d="M149.076 68.3657C149.225 69.8874 149.304 71.3992 149.304 72.8935C149.304 73.8488 149.241 74.7797 149.131 75.6935L149.143 75.4202C147.682 92.7236 113.147 105.936 94.5677 107.002C79.0588 107.893 48.0836 91.049 42.8753 75.4202C42.885 75.7443 42.9015 76.0677 42.916 76.3907C42.6507 75.0142 42.5039 73.5967 42.5039 72.1332C42.5039 70.9683 42.5562 69.7945 42.6545 68.6145L42.7354 68.3618C54.8425 85.9242 74.7039 96.3958 95.9077 96.3958C117.109 96.3958 136.969 85.9247 149.076 68.3657Z" fill="#000072"/>
</g>
</g>
<path fill-rule="evenodd" clip-rule="evenodd" d="M77.8535 60.0808C76.2001 59.337 74.5074 58.0905 72.778 56.3436C69.7796 56.4809 67.3809 59.7124 67.3809 63.6782C67.3809 67.7315 69.8857 71.0176 72.9756 71.0176C76.0659 71.0176 78.5707 67.7315 78.5707 63.6782C78.5707 62.3711 78.3102 61.1441 77.8535 60.0808Z" fill="#000072"/>
<path d="M124.808 53.1703C122.79 55.875 120.806 57.9664 118.856 59.4445C115.988 61.619 112.883 61.9997 112.539 59.6048C114.082 59.4265 115.69 58.7028 117.362 57.4352C121.484 54.3099 122.773 52.2976 124.808 53.1703Z" fill="#000072"/>
<path fill-rule="evenodd" clip-rule="evenodd" d="M115.401 60.0808C117.054 59.337 118.747 58.0905 120.477 56.3436C123.475 56.4809 125.874 59.7124 125.874 63.6782C125.874 67.7315 123.369 71.0176 120.279 71.0176C117.188 71.0176 114.684 67.7315 114.684 63.6782C114.684 62.3711 114.944 61.1441 115.401 60.0808Z" fill="#000072"/>
<path fill-rule="evenodd" clip-rule="evenodd" d="M117.969 61.8085C117.061 61.8085 116.326 62.5991 116.326 63.5739C116.326 64.5488 117.061 65.3394 117.969 65.3394C118.876 65.3394 119.611 64.5488 119.611 63.5739C119.611 62.5991 118.876 61.8085 117.969 61.8085Z" fill="white"/>
<path fill-rule="evenodd" clip-rule="evenodd" d="M95.9029 64.9659C99.9042 64.9659 103.148 67.1477 103.148 69.8387C103.148 72.5301 99.9042 74.7119 95.9029 74.7119C91.9016 74.7119 88.6582 72.5301 88.6582 69.8387C88.6582 67.1477 91.9016 64.9659 95.9029 64.9659Z" fill="#000072"/>
<path d="M102.826 80.6836C100.276 80.6836 97.8094 79.7268 95.9167 78.0171C93.8028 79.9593 90.8888 80.8628 88.0248 80.4034C84.6978 79.8701 81.8762 77.5694 80.6606 74.3992C80.4117 73.7497 80.7317 73.0196 81.3755 72.7683C82.0188 72.5172 82.7426 72.8401 82.9919 73.4894C83.8871 75.825 85.966 77.5201 88.4171 77.9129C90.8695 78.3061 93.3661 77.3451 94.9352 75.4056C95.1695 75.1159 95.5193 74.9461 95.8898 74.942C96.2634 74.9425 96.6133 75.1001 96.8541 75.3844C98.4907 77.3193 100.963 78.3471 103.478 78.1343C105.99 77.9217 108.262 76.4914 109.556 74.3084C109.91 73.7104 110.678 73.5155 111.27 73.8732C111.862 74.2304 112.055 75.0047 111.701 75.6023C109.995 78.4808 107 80.3668 103.687 80.6471C103.4 80.6716 103.112 80.6836 102.826 80.6836Z" fill="#000072"/>
<path fill-rule="evenodd" clip-rule="evenodd" d="M95.9056 76.2029C98.5106 78.7013 101.07 79.7641 103.585 79.3908C104.207 95.8586 87.6598 95.1878 88.223 79.1582C91.3057 79.553 93.8657 78.5684 95.9056 76.2029Z" fill="#000072"/>
<path d="M89.469 80.5043C89.593 84.7002 91.068 87.9991 93.5249 89.4667C95.148 90.436 96.9819 90.4497 98.5574 89.5031C100.909 88.0897 102.262 84.9262 102.349 80.7201C100.223 80.6514 98.0861 79.723 95.9705 77.9476C94.1494 79.6479 91.9901 80.5045 89.5257 80.5045C89.5071 80.5045 89.488 80.5045 89.469 80.5043ZM96.0934 92.7202C94.7804 92.7204 93.4607 92.3589 92.2516 91.6367C88.6937 89.5113 86.7707 84.9468 86.9758 79.1134L87.0244 77.7335L88.3819 77.9074C91.0507 78.2484 93.2005 77.42 94.9642 75.3752L95.8214 74.3811L96.768 75.2889C99.1015 77.5264 101.274 78.4606 103.404 78.1431L104.782 77.9387L104.835 79.3426C105.054 85.1361 103.232 89.6291 99.8365 91.6698C98.6705 92.3702 97.3854 92.7202 96.0934 92.7202Z" fill="#000072"/>
<path fill-rule="evenodd" clip-rule="evenodd" d="M96.0413 85.3096C93.8164 85.3096 91.7266 86.3841 90.4199 88.1994C93.428 92.5214 98.7617 92.5922 101.635 88.1627C100.327 86.3695 98.2501 85.3096 96.0413 85.3096Z" fill="#FF0066"/>
<path d="M92.0386 88.2282C93.197 89.5168 94.6543 90.2155 96.1664 90.2012C97.6278 90.1772 98.9761 89.4813 100.037 88.2213C98.9799 87.175 97.5412 86.5702 96.0414 86.5702C94.5358 86.5702 93.0958 87.1772 92.0386 88.2282ZM96.0886 92.7236C93.5149 92.7236 91.0818 91.344 89.3976 88.9238L88.8848 88.1869L89.4091 87.4584C90.946 85.3232 93.4253 84.0485 96.0414 84.0485C98.6365 84.0485 101.104 85.3069 102.642 87.415L103.157 88.1204L102.681 88.8532C101.113 91.2704 98.7533 92.6808 96.2072 92.7226C96.1677 92.7233 96.128 92.7236 96.0886 92.7236Z" fill="#000072"/>
<path fill-rule="evenodd" clip-rule="evenodd" d="M143.216 46.5098C135.19 33.1287 125.568 24.0693 114.348 19.3329C136.356 -11.782 145.979 -2.72304 143.216 46.5098Z" fill="#FF850B"/>
<path d="M116.264 18.8037C126.114 23.3394 134.809 31.29 142.165 42.4833C143.507 12.1473 139.429 4.07405 135.677 2.74284C132.814 1.72763 127.137 3.74646 116.264 18.8037ZM144.233 50.645L142.144 47.1627C134.295 34.077 124.78 25.105 113.862 20.4961L112.418 19.8864L113.327 18.6005C123.395 4.36775 130.975 -1.59968 136.506 0.363987C143.562 2.86803 146.09 17.5538 144.461 46.5812L144.233 50.645Z" fill="#000072"/>
<path fill-rule="evenodd" clip-rule="evenodd" d="M112.433 48.1378C114.284 47.3721 116.15 47.6496 116.601 48.7579C117.051 49.8661 115.915 51.3858 114.065 52.152C112.214 52.9177 110.348 52.6397 109.897 51.5314C109.447 50.4232 110.583 48.9035 112.433 48.1378Z" fill="white"/>
<path fill-rule="evenodd" clip-rule="evenodd" d="M80.188 48.0639C78.3369 47.2977 76.4709 47.5758 76.0205 48.684C75.57 49.7923 76.7053 51.312 78.5563 52.0776C80.4069 52.8433 82.2729 52.5658 82.7234 51.4576C83.1737 50.3493 82.0385 48.8296 80.188 48.0639Z" fill="white"/>
<path fill-rule="evenodd" clip-rule="evenodd" d="M73.799 61.8085C72.8914 61.8085 72.1562 62.5991 72.1562 63.5739C72.1562 64.5488 72.8914 65.3394 73.799 65.3394C74.7061 65.3394 75.4413 64.5488 75.4413 63.5739C75.4413 62.5991 74.7061 61.8085 73.799 61.8085Z" fill="white"/>
<path fill-rule="evenodd" clip-rule="evenodd" d="M49.4312 47.1479C57.4565 33.7664 67.0792 24.7075 78.2991 19.9706C56.2904 -11.1443 46.6677 -2.08483 49.4312 47.1479Z" fill="#FF850B"/>
<path d="M58.3034 3.15959C57.8011 3.15959 57.3578 3.24163 56.9669 3.38044C53.2155 4.71173 49.1372 12.7848 50.4794 43.1208C57.8351 31.9279 66.5295 23.9772 76.38 19.441C66.9914 6.44016 61.4769 3.15959 58.3034 3.15959ZM48.4114 51.2832L48.1832 47.2189C46.554 18.1914 49.0815 3.50571 56.1376 1.00145C61.6657 -0.959831 69.2479 5.00417 79.3161 19.2378L80.2256 20.5237L78.7812 21.1335C67.8632 25.7429 58.3479 34.715 50.5001 47.8005L48.4114 51.2832Z" fill="#000072"/>
<g opacity="0.649994">
<g opacity="0.649994">
<path opacity="0.649994" fill-rule="evenodd" clip-rule="evenodd" d="M75.548 21.2393C76.4561 20.7863 77.3758 20.3636 78.3061 19.9702C64.6657 0.685892 55.7854 -3.15927 51.6602 8.41923C56.0533 0.277382 64.0152 4.55014 75.5466 21.2383L75.548 21.2393Z" fill="white"/>
</g>
</g>
<path fill-rule="evenodd" clip-rule="evenodd" d="M55.4396 38.0767C59.3518 33.1947 63.7857 28.9688 68.7416 25.4003C57.6321 3.57307 53.1978 7.79838 55.4396 38.0767Z" fill="#000072"/>
<path d="M58.2981 12.9468C58.2434 12.9468 58.2061 12.9542 58.1843 12.9604C58.0505 12.9984 56.8631 13.492 56.355 19.0511C56.0127 22.7967 56.0532 28.1153 56.4739 34.8893C59.7041 31.2021 63.2777 27.8931 67.1369 25.0177C61.2912 13.7449 58.8663 12.9468 58.2981 12.9468ZM54.4277 41.3442L54.193 38.1709C52.4871 15.131 54.9107 11.2707 57.5067 10.533C60.6113 9.64878 64.305 13.9246 69.8529 24.8246L70.3464 25.794L69.467 26.427C64.6281 29.9112 60.2353 34.0976 56.4108 38.8698L54.4277 41.3442Z" fill="#000072"/>
<g opacity="0.300003">
<g opacity="0.300003">
<path opacity="0.300003" fill-rule="evenodd" clip-rule="evenodd" d="M56.8809 12.4137C52.8267 15.4726 50.2081 23.7487 49.0254 37.2412C49.0966 40.3396 49.2308 43.6414 49.4274 47.1479C50.027 46.0539 50.6609 44.9725 51.3307 43.9082L51.2838 44.1736C54.5223 39.1898 58.0059 34.8693 61.7336 31.2113C59.5537 33.2856 57.4998 35.5187 55.5713 37.9101C55.5335 37.957 55.4957 38.0035 55.458 38.0513C55.4546 38.0552 55.4512 38.0596 55.4473 38.065C55.4439 38.0689 55.4411 38.0729 55.4376 38.0767C54.3513 23.4062 54.8327 14.852 56.8809 12.4137ZM135.758 11.776C139.812 14.8354 142.431 23.1111 143.613 36.6035C143.542 39.7019 143.408 43.0042 143.212 46.5102C142.612 45.4162 141.978 44.3353 141.308 43.2705L141.355 43.5359C138.117 38.5522 134.633 34.2316 130.905 30.5741C133.085 32.6484 135.139 34.8815 137.067 37.2729C137.105 37.3194 137.143 37.3662 137.181 37.4137C137.184 37.418 137.187 37.4225 137.191 37.4273C137.195 37.4317 137.198 37.4352 137.201 37.4396C138.288 22.769 137.806 14.2143 135.758 11.776Z" fill="#000072"/>
</g>
</g>
<g opacity="0.649994">
<g opacity="0.649994">
<path opacity="0.649994" fill-rule="evenodd" clip-rule="evenodd" d="M117.108 20.6016C116.2 20.1486 115.28 19.7259 114.35 19.333C127.99 0.0486794 136.871 -3.79697 140.996 7.78153C136.603 -0.360323 128.64 3.91286 117.109 20.6011L117.108 20.6016Z" fill="white"/>
</g>
</g>
<path fill-rule="evenodd" clip-rule="evenodd" d="M137.202 37.4395C133.29 32.5569 128.856 28.3311 123.9 24.7625C135.01 2.93533 139.445 7.16107 137.202 37.4395Z" fill="#000072"/>
<path d="M125.504 24.3797C129.364 27.2555 132.938 30.5649 136.167 34.2516C136.588 27.4774 136.628 22.159 136.286 18.4133C135.778 12.8542 134.591 12.3604 134.457 12.3225C134.21 12.2534 131.913 12.0207 125.504 24.3797ZM138.213 40.707L136.23 38.2323C132.407 33.4606 128.014 29.274 123.174 25.7889L122.295 25.156L122.788 24.1866C128.336 13.2875 132.026 9.01182 135.135 9.89523C137.73 10.6328 140.154 14.4932 138.448 37.5334L138.213 40.707Z" fill="#000072"/>
<path d="M58.3039 3.15966C57.8015 3.15966 57.3583 3.2417 56.9674 3.38052C53.216 4.7118 49.1374 12.7851 50.4796 43.1211C57.8356 31.9279 66.53 23.9772 76.3805 19.4411C66.9919 6.44024 61.4774 3.15966 58.3039 3.15966ZM48.4112 51.2831L48.183 47.219C46.5541 18.1915 49.082 3.50557 56.1381 1.00153C61.6662 -0.959755 69.2484 5.00424 79.3166 19.2379L80.2261 20.5238L78.7817 21.1335C67.8637 25.7429 58.3484 34.7151 50.5 47.8006L48.4112 51.2831Z" fill="#000072"/>
<path d="M96.9838 17.1756C67.4953 17.1756 43.7496 47.2409 43.7496 72.1337C43.7496 78.6067 46.6653 84.6939 52.4162 90.2261C65.2259 102.549 88.5974 108.564 96.3249 108.565C96.5372 108.565 96.7362 108.561 96.9244 108.552C102.523 108.282 115.421 105.375 126.567 99.7559C136.368 94.8149 148.05 86.1439 148.05 72.8939C148.05 47.1274 125.743 17.1756 96.9838 17.1756ZM96.3565 111.086C88.0669 111.086 64.1768 105.024 50.6916 92.0513C44.4269 86.0245 41.25 79.3232 41.25 72.1337C41.25 59.1554 47.4132 44.692 57.7365 33.4443C68.6966 21.5028 83.0016 14.6538 96.9838 14.6538C111.053 14.6538 124.617 21.4744 135.178 33.8591C144.803 45.1473 150.55 59.7397 150.55 72.8939C150.55 84.4016 142.643 94.4704 127.684 102.012C116.213 107.795 102.861 110.791 97.0432 111.071C96.8286 111.081 96.5986 111.086 96.3565 111.086Z" fill="#000072"/>
<g opacity="0.559998">
<g opacity="0.559998">
<path opacity="0.559998" fill-rule="evenodd" clip-rule="evenodd" d="M98.2575 66.9184C99.3501 67.2092 100.158 67.7389 100.063 68.1024C99.9686 68.4654 99.0063 68.5246 97.9136 68.2338C96.821 67.9436 96.0122 67.4134 96.1072 67.0499C96.2021 66.6868 97.1649 66.6277 98.2575 66.9184Z" fill="white"/>
</g>
</g>
<path d="M69.3516 53.1703C71.3701 55.875 73.3544 57.9664 75.3041 59.4445C78.1727 61.619 81.2776 61.9997 81.6215 59.6048C80.0784 59.4265 78.4706 58.7028 76.7978 57.4352C72.6763 54.3099 71.3871 52.2976 69.3516 53.1703Z" fill="#000072"/>
<path d="M116.264 18.8037C126.114 23.3394 134.809 31.29 142.165 42.4833C143.507 12.1473 139.429 4.07405 135.677 2.74284C132.814 1.72763 127.137 3.74646 116.264 18.8037ZM144.233 50.645L142.144 47.1627C134.295 34.077 124.78 25.105 113.862 20.4961L112.418 19.8864L113.327 18.6005C123.395 4.36775 130.975 -1.59968 136.506 0.363987C143.562 2.86803 146.09 17.5538 144.461 46.5812L144.233 50.645Z" fill="#000072"/>
</svg>
