<svg width="256" height="238" viewBox="0 0 256 238" fill="none" xmlns="http://www.w3.org/2000/svg">
<g opacity="0.1">
<path d="M248.346 90.2562C248.346 90.2562 249.24 94.1316 246.275 98.4585C246.275 98.4585 251.119 98.3094 253.448 101.516C253.448 101.516 252.672 96.8553 255.999 93.3134C255.999 93.3134 251.452 94.1337 248.346 90.2562Z" fill="white"/>
</g>
<path d="M2.94257 150.065C2.94257 150.065 4.2133 155.572 0 161.722C0 161.722 6.88358 161.51 10.194 166.066C10.194 166.066 9.09053 159.443 13.8197 154.409C13.8197 154.409 7.35648 155.575 2.94257 150.065Z" fill="white"/>
<path d="M233.836 149.617C233.836 149.617 234.73 153.492 231.766 157.819C231.766 157.819 236.609 157.67 238.938 160.876C238.938 160.876 238.162 156.216 241.49 152.674C241.49 152.674 236.942 153.494 233.836 149.617Z" fill="white"/>
<g opacity="0.300003">
<g opacity="0.300003">
<path opacity="0.300003" d="M241.292 228.845C241.292 232.872 190.837 236.136 128.598 236.136C66.359 236.136 15.9043 232.872 15.9043 228.845C15.9043 224.818 66.359 221.554 128.598 221.554C190.837 221.554 241.292 224.818 241.292 228.845Z" fill="#000072"/>
</g>
</g>
<path d="M223.451 219.731C218.978 224.96 212.417 227.901 205.566 227.901H51.6141C44.7631 227.901 38.202 224.96 33.7297 219.731C31.2589 216.841 29.4323 213.621 28.2038 210.327C28.1992 210.327 28.1992 210.327 28.1992 210.322C24.3343 199.985 26.3036 188.892 32.469 184.902C42.8214 178.193 50.8043 186.391 50.8043 186.391C51.6877 184.298 52.884 182.484 54.2229 180.93C59.2657 175.056 66.3329 172.82 66.3329 172.82C62.491 150.601 71.0675 130.47 71.0675 130.47C71.0675 130.47 92.2002 146.574 128.59 146.574C164.98 146.574 186.113 130.47 186.113 130.47C186.113 130.47 194.689 150.601 190.847 172.82C190.847 172.82 202.161 176.402 206.376 186.391C206.376 186.391 214.359 178.193 224.711 184.902C232.841 190.167 233.674 207.784 223.451 219.731Z" fill="#B11313"/>
<g opacity="0.300003">
<g opacity="0.300003">
<path opacity="0.300003" d="M56.9425 206.874C58.3689 192.951 50.8047 186.942 50.8047 186.942C51.6881 184.85 52.8844 183.036 54.2233 181.481C65.9561 195.632 56.9425 206.874 56.9425 206.874Z" fill="#000072"/>
</g>
</g>
<g opacity="0.300003">
<g opacity="0.300003">
<path opacity="0.300003" d="M200.288 206.874C198.862 192.951 206.426 186.942 206.426 186.942C205.542 184.85 204.346 183.036 203.007 181.481C191.274 195.632 200.288 206.874 200.288 206.874Z" fill="#000072"/>
</g>
</g>
<g opacity="0.300003">
<g opacity="0.300003">
<path opacity="0.300003" d="M201.47 218.557C200.374 218.281 199.244 218.187 198.121 218.311C196.521 218.488 193.768 218.763 189.73 219.068C183.653 219.527 178.346 214.923 177.931 208.792C177.753 206.158 178.144 204.113 178.285 203.48C176.698 210.321 173.768 216.623 171.981 220.079C162.911 220.461 151.423 220.771 137.216 220.862C136.45 193.182 152.396 167.228 152.396 167.228C127.963 186.937 104.808 167.228 104.808 167.228C120.93 196.084 120.091 219.66 120.091 219.66L122.806 220.877C107.292 220.811 94.8853 220.486 85.223 220.08C83.4363 216.623 80.5058 210.321 78.9188 203.48C79.0662 204.138 79.483 206.324 79.2487 209.112C78.7445 215.111 73.4324 219.519 67.4781 219.068C63.4379 218.763 60.6838 218.488 59.0832 218.311C57.9602 218.187 56.8301 218.281 55.7338 218.557C38.2167 222.954 28.5098 211.26 28.1973 210.872C29.4258 214.167 31.2524 217.386 33.7232 220.277C38.1954 225.506 44.7566 228.447 51.6076 228.447H128.602H205.596C212.448 228.447 219.009 225.506 223.481 220.277C225.952 217.386 227.778 214.167 229.007 210.872C228.694 211.26 218.987 222.954 201.47 218.557Z" fill="#000072"/>
</g>
</g>
<g opacity="0.300003">
<g opacity="0.300003">
<path opacity="0.300003" d="M78.9284 203.489C78.8982 203.356 78.8789 203.283 78.8789 203.283C78.8948 203.352 78.9122 203.42 78.9284 203.489Z" fill="#000072"/>
</g>
</g>
<g opacity="0.300003">
<g opacity="0.300003">
<path opacity="0.300003" d="M178.283 203.489C178.299 203.42 178.317 203.352 178.333 203.283C178.333 203.283 178.313 203.356 178.283 203.489Z" fill="#000072"/>
</g>
</g>
<path d="M128.574 226.843H205.569C212.028 226.843 218.107 224.068 222.247 219.231C227.595 212.981 230.233 204.327 229.13 196.644C228.484 192.147 226.561 188.56 223.853 186.805C214.697 180.87 207.804 187.774 207.515 188.07C207.143 188.453 206.605 188.625 206.081 188.524C205.557 188.424 205.118 188.067 204.91 187.573C201.028 178.37 190.477 174.941 190.371 174.907C189.608 174.666 189.14 173.891 189.277 173.096C192.333 155.439 187.286 138.918 185.353 133.505C179.567 137.32 159.658 148.734 128.593 148.734C97.5281 148.734 77.6181 137.32 71.8324 133.505C69.8998 138.918 64.8528 155.439 67.9082 173.096C68.0457 173.891 67.5779 174.666 66.8143 174.907C66.7101 174.941 56.1427 178.407 52.276 187.573C52.0675 188.067 51.6281 188.424 51.1049 188.524C50.5818 188.624 50.0431 188.453 49.6701 188.07C49.3821 187.779 42.4295 180.907 33.3323 186.805C30.6246 188.56 28.7013 192.147 28.0558 196.644C26.9532 204.327 29.5905 212.981 34.9388 219.231C39.0789 224.068 45.1576 226.843 51.6164 226.843H128.574ZM205.569 230.06H51.6164C44.2293 230.06 37.2701 226.878 32.5237 221.332C26.5893 214.398 23.6675 204.761 24.8987 196.184C25.6879 190.684 28.0705 186.391 31.6073 184.099C40.0247 178.643 47.1269 182.206 50.2479 184.426C54.2067 177.116 61.5518 173.531 64.5495 172.321C61.2112 150.432 69.2533 131.208 69.6041 130.384C69.7976 129.93 70.1874 129.591 70.6612 129.465C71.1357 129.338 71.6405 129.438 72.0314 129.736C72.2381 129.893 93.2236 145.517 128.593 145.517C163.962 145.517 184.948 129.893 185.156 129.735C185.547 129.438 186.053 129.338 186.525 129.465C186.999 129.592 187.389 129.931 187.582 130.384C187.933 131.208 195.974 150.432 192.636 172.321C195.634 173.531 202.979 177.116 206.938 184.426C210.058 182.206 217.16 178.641 225.578 184.099C229.115 186.391 231.498 190.683 232.287 196.184C233.518 204.761 230.597 214.398 224.662 221.332C219.915 226.878 212.956 230.06 205.569 230.06Z" fill="#000072"/>
<path d="M51.7366 185.632C51.9116 185.753 51.9931 185.819 52.1137 185.909C52.228 185.994 52.3202 186.076 52.4246 186.161C52.6318 186.329 52.807 186.507 52.9947 186.683C53.1868 186.855 53.3451 187.045 53.5176 187.229C53.6914 187.412 53.8544 187.601 54.0074 187.796C54.6429 188.564 55.1773 189.392 55.6537 190.247C56.6088 191.957 57.2432 193.8 57.6843 195.656C58.1143 197.52 58.2732 199.413 58.2734 201.281C58.2767 202.215 58.1734 203.146 58.1104 204.066C57.9729 204.985 57.8227 205.897 57.6319 206.796C57.5954 206.967 57.428 207.076 57.258 207.04C57.1288 207.012 57.0353 206.908 57.0136 206.784L57.01 206.762C56.8537 205.859 56.7564 204.969 56.6388 204.087L56.4103 202.775C56.3266 202.341 56.2954 201.902 56.1809 201.476C55.9666 200.624 55.8518 199.762 55.5814 198.939C55.4636 198.524 55.3712 198.104 55.243 197.696L54.8316 196.486C54.2642 194.889 53.571 193.361 52.7358 191.949C52.5184 191.603 52.3148 191.245 52.0785 190.917L51.7369 190.414L51.3706 189.936C51.1383 189.606 50.8689 189.317 50.6167 189.019C50.4867 188.878 50.3577 188.725 50.2265 188.599C50.1634 188.534 50.0961 188.458 50.0366 188.402C49.9835 188.35 49.8966 188.268 49.8907 188.256L49.5464 187.559C49.1768 186.81 49.4789 185.901 50.2214 185.528C50.7244 185.276 51.3023 185.336 51.7366 185.632Z" fill="#000072"/>
<path d="M207.268 188.256C207.262 188.268 207.175 188.35 207.122 188.402C207.062 188.458 206.995 188.535 206.932 188.599C206.8 188.725 206.671 188.878 206.541 189.019C206.289 189.317 206.02 189.606 205.788 189.936L205.421 190.414L205.08 190.917C204.843 191.245 204.64 191.603 204.422 191.949C203.587 193.361 202.894 194.889 202.327 196.486L201.915 197.697C201.787 198.104 201.695 198.524 201.577 198.939C201.306 199.762 201.192 200.624 200.977 201.476C200.863 201.902 200.832 202.341 200.748 202.775L200.519 204.087C200.402 204.969 200.305 205.859 200.148 206.762L200.145 206.784C200.115 206.957 199.952 207.072 199.78 207.042C199.65 207.019 199.553 206.919 199.526 206.796C199.336 205.897 199.185 204.986 199.048 204.066C198.985 203.146 198.882 202.215 198.885 201.281C198.885 199.413 199.044 197.52 199.474 195.656C199.915 193.8 200.55 191.957 201.504 190.247C201.981 189.392 202.515 188.565 203.151 187.796C203.304 187.601 203.467 187.412 203.641 187.229C203.813 187.045 203.971 186.855 204.164 186.683C204.351 186.507 204.526 186.329 204.734 186.161C204.838 186.076 204.93 185.995 205.045 185.909C205.165 185.819 205.247 185.753 205.422 185.633C206.107 185.162 207.041 185.34 207.508 186.031C207.825 186.5 207.846 187.083 207.613 187.557L207.268 188.256Z" fill="#000072"/>
<path d="M67.9219 173.181L68.0518 174.466L68.2142 175.904C68.2714 176.394 68.3475 176.885 68.3894 177.401C68.4363 177.915 68.464 178.448 68.4381 179.024L68.438 179.027C68.434 179.117 68.358 179.187 68.268 179.183C68.2358 179.182 68.2063 179.171 68.1818 179.153C67.7132 178.821 67.3099 178.439 66.961 178.023C66.6036 177.61 66.3111 177.159 66.0259 176.697C65.747 176.232 65.4932 175.749 65.2722 175.242C65.1682 174.987 65.0605 174.73 64.9768 174.459C64.9316 174.325 64.8909 174.187 64.8544 174.045C64.815 173.892 64.7885 173.78 64.7544 173.563C64.616 172.685 65.2095 171.86 66.0801 171.721C66.9507 171.582 67.7686 172.18 67.9068 173.058C67.9113 173.086 67.9149 173.114 67.9179 173.142L67.9219 173.181Z" fill="#000072"/>
<path d="M192.467 173.563C192.433 173.78 192.407 173.892 192.367 174.045C192.331 174.187 192.29 174.325 192.245 174.459C192.161 174.73 192.053 174.987 191.949 175.242C191.728 175.749 191.474 176.232 191.196 176.697C190.91 177.159 190.618 177.61 190.261 178.023C189.912 178.439 189.508 178.821 189.04 179.153C188.966 179.206 188.865 179.188 188.813 179.114C188.794 179.087 188.785 179.057 188.783 179.027L188.783 179.024C188.757 178.448 188.785 177.915 188.832 177.401C188.874 176.885 188.95 176.394 189.007 175.904L189.17 174.466L189.3 173.181L189.303 173.147C189.393 172.263 190.176 171.619 191.053 171.709C191.93 171.8 192.568 172.59 192.479 173.474C192.476 173.502 192.471 173.535 192.467 173.563Z" fill="#000072"/>
<path d="M75.6595 189.123C75.6595 189.123 68.3576 183.413 66.3365 173.372C66.3365 173.372 62.1357 171.231 59.2324 177.024C59.2324 177.024 62.5815 194.708 78.8785 203.277C78.8785 203.277 76.5236 194.174 75.6595 189.123Z" fill="#0096F2"/>
<path d="M60.9212 177.254C61.579 179.954 65.1208 192.285 76.3934 199.92C75.6802 197.002 74.7348 192.969 74.1927 189.983C72.5017 188.506 66.9981 183.16 64.9762 174.612C64.058 174.453 62.4049 174.639 60.9212 177.254ZM78.8796 204.886C78.6277 204.886 78.3748 204.826 78.1422 204.704C61.3542 195.875 57.8097 178.078 57.667 177.325C57.6009 176.977 57.6512 176.615 57.8103 176.298C59.6238 172.68 61.9951 171.654 63.665 171.431C65.5128 171.182 66.9046 171.858 67.0572 171.936C67.493 172.158 67.804 172.569 67.9011 173.052C69.7727 182.351 76.5722 187.8 76.6406 187.854C76.9527 188.1 77.1654 188.456 77.2326 188.85C78.0753 193.775 80.3999 202.781 80.4233 202.871C80.5823 203.487 80.3668 204.139 79.8735 204.536C79.5852 204.767 79.2336 204.886 78.8796 204.886Z" fill="#000072"/>
<path d="M181.565 189.123C181.565 189.123 188.866 183.413 190.888 173.372C190.888 173.372 195.088 171.231 197.992 177.024C197.992 177.024 194.643 194.708 178.346 203.277C178.346 203.277 180.701 194.174 181.565 189.123Z" fill="#0096F2"/>
<path d="M183.032 189.983C182.49 192.969 181.545 197.002 180.831 199.92C192.103 192.285 195.645 179.956 196.304 177.253C195.405 175.666 194.343 174.78 193.141 174.62C192.803 174.575 192.495 174.594 192.244 174.634C190.218 183.169 184.722 188.507 183.032 189.983ZM178.345 204.886C177.991 204.886 177.64 204.767 177.351 204.535C176.858 204.139 176.643 203.487 176.802 202.871C176.825 202.781 179.15 193.775 179.992 188.85C180.06 188.455 180.271 188.1 180.584 187.854C180.653 187.8 187.452 182.351 189.324 173.052C189.421 172.569 189.732 172.158 190.168 171.936C190.32 171.859 191.712 171.182 193.56 171.431C195.23 171.654 197.601 172.68 199.414 176.298C199.574 176.615 199.624 176.977 199.558 177.325C199.415 178.078 195.871 195.875 179.083 204.704C178.85 204.825 178.597 204.886 178.345 204.886Z" fill="#000072"/>
<path d="M97.6621 148.039C97.6621 148.039 100.404 155.876 99.6148 167.309L108.648 175.234C108.648 175.234 111.008 161.421 106.988 149.949L97.6621 148.039Z" fill="#0096F2"/>
<path d="M101.253 166.616L107.43 172.035C107.848 167.627 108.205 158.986 105.767 151.34L99.9004 150.138C100.659 153.319 101.67 159.172 101.253 166.616ZM108.645 176.842C108.266 176.842 107.892 176.705 107.598 176.447L98.5648 168.521C98.1874 168.19 97.9859 167.699 98.0205 167.197C98.7743 156.271 96.1804 148.647 96.1542 148.572C95.9646 148.026 96.08 147.418 96.4572 146.982C96.8347 146.546 97.4155 146.35 97.9764 146.462L107.302 148.372C107.851 148.484 108.302 148.879 108.488 149.412C112.601 161.145 110.316 174.926 110.217 175.507C110.119 176.079 109.722 176.554 109.18 176.748C109.005 176.811 108.824 176.842 108.645 176.842Z" fill="#000072"/>
<path d="M159.563 148.039C159.563 148.039 156.821 155.876 157.61 167.309L148.577 175.234C148.577 175.234 146.217 161.421 150.237 149.949L159.563 148.039Z" fill="#0096F2"/>
<path d="M151.453 151.34C149.01 158.999 149.368 167.634 149.788 172.037L155.966 166.616C155.549 159.171 156.561 153.319 157.319 150.138L151.453 151.34ZM148.575 176.842C148.395 176.842 148.214 176.811 148.04 176.748C147.497 176.554 147.101 176.079 147.003 175.507C146.904 174.926 144.619 161.145 148.731 149.412C148.918 148.879 149.368 148.484 149.918 148.372L159.243 146.462C159.806 146.345 160.387 146.546 160.764 146.983C161.141 147.419 161.256 148.026 161.065 148.572C161.024 148.693 158.448 156.304 159.199 167.197C159.234 167.699 159.032 168.19 158.655 168.521L149.622 176.447C149.327 176.705 148.954 176.842 148.575 176.842Z" fill="#000072"/>
<path d="M119.602 223.428C117.329 234.683 104.373 239.833 95.2671 232.934C88.1401 227.538 80.3136 215.197 75.4779 188.134C75.0178 185.541 74.5807 182.808 74.1758 179.936L77.2539 176.994L97.6597 157.48C97.6597 157.48 117.762 188.863 119.989 212.919V212.924C120.338 216.649 120.256 220.199 119.602 223.428Z" fill="#B11313"/>
<g opacity="0.300003">
<g opacity="0.300003">
<path opacity="0.300003" d="M119.603 223.428C117.33 234.683 104.373 239.833 95.2675 232.934C88.1404 227.538 80.314 215.197 75.4782 188.134C68.6732 184 66.3359 173.371 66.3359 173.371C63.4004 159.257 66.7868 146.248 66.7868 146.248C66.1424 163.427 72.9043 171.622 75.6933 174.252C76.4704 174.985 77.0135 175.931 77.2502 176.977C77.2516 176.983 77.2529 176.989 77.2542 176.995C82.2372 199.228 90.5836 226.314 102.694 228.253C114.385 230.123 119.423 214.766 119.989 212.924C120.339 216.649 120.256 220.199 119.603 223.428Z" fill="#000072"/>
</g>
</g>
<path d="M99.4102 155.979C101.734 158.531 103.571 161.377 105.237 164.318C106.063 165.791 106.817 167.303 107.567 168.817C108.316 170.332 109.05 171.854 109.765 173.386C112.629 179.512 115.236 185.775 117.402 192.23C119.57 198.676 121.316 205.336 121.952 212.271C122.258 215.733 122.277 219.275 121.694 222.821C121.567 223.692 121.383 224.626 121.099 225.526C120.841 226.432 120.476 227.306 120.08 228.163C119.254 229.863 118.154 231.43 116.842 232.786C114.19 235.471 110.686 237.281 106.967 237.813C105.112 238.106 103.206 238.042 101.357 237.711C99.51 237.357 97.7259 236.689 96.0949 235.768C95.2971 235.292 94.4937 234.769 93.8004 234.192L92.7607 233.332C92.4097 233.049 92.1082 232.721 91.7802 232.418C91.4636 232.104 91.1263 231.807 90.828 231.479L89.9384 230.491C89.3245 229.847 88.8153 229.131 88.2642 228.444C86.1349 225.644 84.4366 222.599 82.9456 219.494C81.4304 216.393 80.272 213.167 79.15 209.942C78.1089 206.693 77.1605 203.422 76.3803 200.118C75.9948 198.465 75.5807 196.817 75.2661 195.153C74.942 193.49 74.5537 191.838 74.3181 190.161C73.7964 186.815 73.5515 183.423 73.8385 179.983C73.8547 179.788 74.0242 179.644 74.2171 179.66C74.3515 179.672 74.4618 179.758 74.5108 179.876L74.515 179.886C75.1782 181.484 75.6799 183.098 76.1125 184.719C76.5385 186.342 76.98 187.955 77.3145 189.587C77.6345 191.224 78.0095 192.843 78.3625 194.469C78.6977 196.1 79.1297 197.703 79.5326 199.314C80.3477 202.533 81.323 205.698 82.3802 208.825C83.514 211.916 84.679 215.004 86.1603 217.909C87.6113 220.825 89.2663 223.624 91.2111 226.144C91.7134 226.758 92.1793 227.409 92.7288 227.971L93.5246 228.842C93.7906 229.132 94.0869 229.383 94.3658 229.657C94.6535 229.918 94.92 230.209 95.224 230.446L96.1221 231.176C96.7173 231.666 97.3253 232.044 97.9602 232.422C99.2424 233.129 100.624 233.634 102.052 233.897C103.481 234.136 104.952 234.181 106.388 233.938C109.272 233.509 111.984 232.063 114.021 229.982C115.036 228.936 115.888 227.731 116.533 226.416C116.838 225.751 117.128 225.075 117.329 224.366C117.554 223.665 117.698 222.947 117.814 222.157C118.331 219.073 118.336 215.842 118.057 212.62C117.775 209.394 117.207 206.164 116.471 202.963C115.74 199.759 114.826 196.582 113.81 193.434C111.771 187.136 109.28 180.961 106.527 174.905C105.84 173.39 105.133 171.883 104.411 170.384C103.693 168.882 102.937 167.4 102.236 165.888C100.822 162.872 99.4892 159.807 98.4377 156.566L98.4343 156.555C98.3348 156.249 98.5006 155.919 98.8042 155.819C99.0265 155.746 99.2615 155.816 99.4102 155.979Z" fill="#000072"/>
<path d="M79.9431 208.479C79.5136 208.479 79.0851 208.306 78.7709 207.963C78.1737 207.31 78.2132 206.294 78.8596 205.691C79.4514 205.139 93.5994 192.161 115.261 190.528C116.137 190.457 116.904 191.126 116.97 192.012C117.036 192.898 116.377 193.67 115.498 193.736C94.9865 195.282 81.1617 207.926 81.0244 208.054C80.7178 208.339 80.3298 208.479 79.9431 208.479Z" fill="#000072"/>
<path d="M137.616 223.428C139.889 234.683 152.845 239.833 161.951 232.934C169.078 227.538 176.904 215.197 181.74 188.134C182.2 185.541 182.637 182.808 183.042 179.936L179.964 176.994L159.558 157.48C159.558 157.48 139.456 188.863 137.229 212.919V212.924C136.879 216.649 136.962 220.199 137.616 223.428Z" fill="#B11313"/>
<g opacity="0.300003">
<g opacity="0.300003">
<path opacity="0.300003" d="M137.629 223.432C139.902 234.687 152.859 239.837 161.964 232.938C169.091 227.542 176.918 215.201 181.754 188.138C188.559 184.004 190.896 173.375 190.896 173.375C193.831 159.261 190.445 146.252 190.445 146.252C191.09 163.431 184.328 171.626 181.539 174.256C180.761 174.989 180.218 175.935 179.982 176.981C179.98 176.987 179.979 176.993 179.978 176.998C174.995 199.231 166.648 226.317 154.538 228.257C142.847 230.127 137.809 214.769 137.243 212.928C136.893 216.653 136.976 220.202 137.629 223.432Z" fill="#000072"/>
</g>
</g>
<path d="M158.791 156.566C157.74 159.806 156.407 162.872 154.993 165.888C154.292 167.4 153.536 168.882 152.818 170.384C152.096 171.883 151.389 173.39 150.702 174.905C147.949 180.961 145.458 187.136 143.419 193.434C142.402 196.582 141.489 199.759 140.758 202.963C140.022 206.164 139.454 209.394 139.172 212.62C138.893 215.842 138.898 219.073 139.415 222.157C139.531 222.947 139.675 223.665 139.9 224.366C140.1 225.075 140.391 225.751 140.696 226.416C141.341 227.731 142.193 228.936 143.208 229.982C145.245 232.063 147.957 233.509 150.841 233.938C152.277 234.181 153.748 234.136 155.177 233.897C156.605 233.634 157.987 233.129 159.269 232.422C159.904 232.044 160.512 231.666 161.107 231.176L162.005 230.446C162.309 230.209 162.575 229.918 162.863 229.657C163.142 229.383 163.438 229.132 163.704 228.842L164.5 227.971C165.05 227.409 165.516 226.757 166.018 226.144C167.963 223.624 169.618 220.825 171.069 217.909C172.55 215.004 173.715 211.916 174.849 208.825C175.906 205.698 176.881 202.533 177.696 199.314C178.099 197.703 178.531 196.1 178.867 194.469C179.22 192.843 179.595 191.224 179.914 189.587C180.249 187.955 180.691 186.342 181.117 184.719C181.549 183.098 182.051 181.484 182.714 179.886L182.718 179.876C182.793 179.696 182.998 179.611 183.177 179.686C183.301 179.739 183.38 179.856 183.391 179.983C183.678 183.423 183.433 186.815 182.911 190.161C182.675 191.838 182.287 193.49 181.963 195.153C181.648 196.818 181.234 198.465 180.849 200.118C180.069 203.422 179.12 206.693 178.079 209.942C176.957 213.167 175.799 216.393 174.283 219.494C172.792 222.599 171.094 225.644 168.965 228.444C168.414 229.131 167.905 229.847 167.291 230.491L166.401 231.479C166.103 231.807 165.765 232.104 165.449 232.418C165.121 232.721 164.819 233.049 164.468 233.332L163.429 234.192C162.735 234.769 161.932 235.292 161.134 235.768C159.503 236.688 157.719 237.357 155.872 237.711C154.023 238.042 152.117 238.106 150.262 237.813C146.543 237.281 143.039 235.471 140.387 232.786C139.075 231.43 137.975 229.863 137.149 228.163C136.753 227.306 136.388 226.432 136.13 225.526C135.846 224.626 135.662 223.692 135.535 222.821C134.952 219.275 134.971 215.733 135.277 212.271C135.913 205.336 137.659 198.676 139.827 192.23C141.993 185.775 144.601 179.512 147.464 173.386C148.179 171.854 148.913 170.332 149.662 168.817C150.412 167.303 151.166 165.791 151.992 164.318C153.658 161.377 155.495 158.531 157.819 155.979C158.035 155.742 158.401 155.726 158.636 155.944C158.808 156.103 158.863 156.344 158.795 156.554L158.791 156.566Z" fill="#000072"/>
<path d="M177.282 208.48C176.895 208.48 176.507 208.34 176.2 208.054C176.063 207.926 162.238 195.282 141.726 193.736C140.848 193.67 140.189 192.898 140.255 192.012C140.32 191.126 141.087 190.458 141.964 190.528C163.625 192.161 177.773 205.139 178.365 205.691C179.012 206.294 179.051 207.312 178.453 207.964C178.139 208.307 177.711 208.48 177.282 208.48Z" fill="#000072"/>
<path d="M128.635 141.942C170.351 141.942 186.914 123.567 186.914 123.567C186.914 123.567 187.609 125.149 187.947 127.398C188.507 131.121 186.939 134.856 183.953 137.118C177.39 142.091 160.676 151.565 128.614 151.565C96.5515 151.565 79.8379 142.091 73.2741 137.118C70.2881 134.856 68.7201 131.121 69.2802 127.398C69.6186 125.149 70.3135 123.567 70.3135 123.567C70.3135 123.567 86.8769 141.942 128.592 141.942" fill="#751313"/>
<g opacity="0.300003">
<g opacity="0.300003">
<path opacity="0.300003" d="M187.797 126.538C187.26 128.873 185.916 130.995 183.955 132.481C177.391 137.453 160.678 146.928 128.616 146.928C96.5533 146.928 79.8397 137.453 73.276 132.481C71.3152 130.995 69.9713 128.873 69.4346 126.538C69.3792 126.812 69.3274 127.099 69.2822 127.4C68.722 131.123 70.29 134.858 73.276 137.12C79.8397 142.093 96.5533 151.567 128.616 151.567C160.678 151.567 177.391 142.093 183.955 137.12C186.941 134.858 188.509 131.123 187.949 127.4C187.904 127.099 187.852 126.812 187.797 126.538Z" fill="#000072"/>
</g>
</g>
<path d="M128.614 153.176C96.5947 153.176 79.5981 143.922 72.3166 138.406C68.8254 135.761 67.0577 131.451 67.7036 127.159C68.0696 124.724 68.8233 122.99 68.8553 122.917C69.0738 122.42 69.5266 122.067 70.059 121.981C70.5905 121.893 71.131 122.084 71.4941 122.486C71.6541 122.663 88.1894 140.336 128.592 140.336V143.553C94.0845 143.553 76.58 131.278 71.0726 126.498C70.9931 126.851 70.9187 127.234 70.8574 127.641C70.3881 130.762 71.6812 133.901 74.2327 135.834C81.1961 141.109 97.521 149.959 128.614 149.959C159.707 149.959 176.032 141.109 182.996 135.834C185.547 133.901 186.84 130.762 186.37 127.641C186.309 127.234 186.235 126.851 186.155 126.498C180.648 131.278 163.143 143.553 128.636 143.553V140.336C169.176 140.336 185.573 122.665 185.734 122.486C186.097 122.084 186.637 121.894 187.169 121.981C187.701 122.067 188.154 122.42 188.373 122.917C188.405 122.99 189.158 124.724 189.524 127.159C190.17 131.451 188.403 135.761 184.912 138.406C177.63 143.922 160.633 153.176 128.614 153.176Z" fill="#000072"/>
<g opacity="0.3">
<path d="M2.51384 20.6C2.51384 20.6 3.40801 24.4754 0.443359 28.8022C0.443359 28.8022 5.28682 28.6531 7.61616 31.8594C7.61616 31.8594 6.83968 27.1991 10.1673 23.6573C10.1673 23.6573 5.61957 24.4775 2.51384 20.6Z" fill="white"/>
</g>
<path d="M70.3477 137.169L96.0682 196.209" stroke="#000072" stroke-miterlimit="10"/>
<path d="M160.041 196.206L186.307 137.166" stroke="#000072" stroke-miterlimit="10"/>
<path fill-rule="evenodd" clip-rule="evenodd" d="M126.726 161.277C126.715 161.42 126.63 161.547 126.573 161.687C126.518 161.822 126.467 161.968 126.42 162.11C126.295 162.48 126.179 162.845 126.19 163.325C126.614 163.382 127.148 163.34 127.531 163.285C127.74 163.379 127.874 163.524 128.068 163.629C128.031 163.45 128.205 163.416 128.355 163.365C128.289 163.442 128.186 163.495 128.221 163.642C128.308 163.682 128.322 163.576 128.393 163.563C128.492 163.64 128.617 163.636 128.719 163.563C128.793 163.574 128.773 163.649 128.853 163.655C128.967 163.553 128.805 163.441 128.757 163.365C128.9 163.416 129.062 163.455 129.045 163.616C129.2 163.551 129.388 163.395 129.543 163.285C129.942 163.343 130.453 163.37 130.923 163.338C130.907 162.534 130.624 161.915 130.348 161.291C130.425 161.284 130.424 161.353 130.444 161.383C130.729 161.808 130.983 162.294 131.191 162.81C131.222 162.885 131.273 162.987 131.306 163.087C131.336 163.175 131.398 163.328 131.383 163.378C131.35 163.486 131.091 163.523 131.038 163.616C130.878 163.486 130.419 163.523 129.984 163.51C129.861 163.506 129.696 163.482 129.62 163.497C129.453 163.53 129.38 163.698 129.294 163.788C129.53 163.799 129.717 163.641 129.927 163.629C130.06 163.621 130.254 163.69 130.425 163.721C130.919 163.812 131.47 163.888 131.92 163.986C131.947 162.923 131.551 162.038 131.019 161.317C131.548 161.82 131.904 162.409 132.169 163.101C132.215 163.22 132.254 163.334 132.284 163.457C132.326 163.63 132.327 163.844 132.456 163.972C132.297 164.092 132.106 164.189 131.939 164.303C131.468 164.109 130.558 163.83 129.792 163.88C129.609 163.892 129.447 163.955 129.313 164.039C129.547 164.103 129.709 164.109 130.022 164.105C130.1 164.103 130.213 164.081 130.272 164.091C130.338 164.103 130.445 164.198 130.54 164.263C131.093 164.645 131.588 164.924 132.245 165.228C132.451 165.322 132.566 165.419 132.801 165.294C132.84 166.548 132.357 167.473 131.766 168.319C131.697 168.417 131.654 168.532 131.536 168.61C131.981 167.887 132.322 167.027 132.322 166.02C132.322 165.915 132.351 165.783 132.322 165.69C132.28 165.558 131.979 165.418 131.805 165.307C131.309 164.992 130.915 164.77 130.367 164.474C130.26 164.416 130.169 164.338 130.08 164.316C129.987 164.293 129.839 164.288 129.735 164.276C129.604 164.262 129.479 164.258 129.371 164.25C129.583 164.407 129.919 164.602 130.214 164.752C130.268 164.785 130.324 164.74 130.387 164.739C130.457 166.211 130.298 167.654 129.697 168.729C129.553 168.985 129.394 169.237 129.141 169.429C129.958 168.412 130.02 166.665 129.85 165.135C130.024 165.031 129.948 164.945 129.792 164.818C129.622 164.679 129.32 164.476 129.122 164.408C129.108 164.477 129.142 164.545 129.179 164.607C129.217 164.669 129.3 164.723 129.313 164.778C129.342 164.897 129.272 165.156 129.237 165.294C129.118 165.749 128.868 166.25 128.643 166.588C128.563 166.581 128.619 166.481 128.566 166.456C128.481 166.459 128.532 166.556 128.489 166.588C128.225 166.278 128 165.764 127.876 165.294C127.832 165.125 127.763 164.923 127.799 164.778C127.828 164.663 128.008 164.559 127.991 164.422C127.816 164.449 127.652 164.57 127.512 164.673C127.372 164.775 127.227 164.886 127.129 165.003C127.14 165.061 127.222 165.071 127.244 165.122C127.118 166.67 127.122 168.414 127.972 169.416C127.882 169.407 127.84 169.329 127.799 169.283C127.008 168.411 126.796 167.066 126.707 165.677C126.687 165.37 126.667 165.069 126.726 164.765C126.742 164.701 126.841 164.796 126.899 164.752C127.201 164.595 127.474 164.417 127.761 164.25C127.511 164.276 127.239 164.268 127.014 164.329C126.818 164.382 126.604 164.529 126.42 164.633C125.857 164.949 125.264 165.292 124.79 165.65C124.694 166.829 125.085 167.779 125.557 168.61C124.877 167.695 124.245 166.679 124.311 165.294C124.571 165.463 124.965 165.187 125.174 165.082C125.754 164.79 126.374 164.412 126.822 164.091C127.147 164.124 127.528 164.098 127.799 164.052C127.461 163.754 126.593 163.903 126.075 164.012C125.727 164.085 125.402 164.19 125.193 164.303C124.994 164.211 124.842 164.087 124.656 163.986C124.792 163.751 124.821 163.356 124.925 163.087C125.178 162.431 125.573 161.851 126.055 161.317C126.043 161.418 125.941 161.506 125.883 161.594C125.463 162.238 125.186 163.037 125.174 163.972C125.617 163.903 126.145 163.818 126.669 163.721C126.839 163.69 127.016 163.626 127.148 163.629C127.361 163.634 127.561 163.786 127.799 163.788C127.743 163.664 127.635 163.575 127.512 163.497C127.117 163.528 126.676 163.479 126.324 163.523C126.288 163.528 126.241 163.542 126.19 163.563C126.194 163.561 126.076 163.616 126.094 163.616C126.014 163.615 125.819 163.425 125.73 163.404C125.914 162.593 126.329 161.942 126.726 161.277Z" fill="#000072"/>
<path fill-rule="evenodd" clip-rule="evenodd" d="M128.619 153.176V175.987V153.176Z" fill="#000072"/>
<path d="M128.619 153.176V175.987" stroke="#000072" stroke-miterlimit="10"/>
<path d="M121.554 153.02C121.554 153.02 122.798 171.707 120.977 175.016" stroke="#000072" stroke-miterlimit="10"/>
<path d="M115.965 152.66C115.965 152.66 118.769 161.306 114.717 172.985" stroke="#000072" stroke-miterlimit="10"/>
<path d="M135.059 153.174C135.059 153.174 133.759 169.731 135.639 175.369" stroke="#000072" stroke-miterlimit="10"/>
<path d="M141.696 152.66C141.696 152.66 138.723 169.079 143.138 172.985" stroke="#000072" stroke-miterlimit="10"/>
<path d="M110.152 155.945C110.152 155.945 112.952 153.251 116.63 155.945C116.63 155.945 118.547 153.271 121.734 156.313C121.734 156.313 123.473 152.982 128.59 155.945C128.59 155.945 130.749 153.161 134.624 155.945C134.624 155.945 137.668 152.854 141.233 155.792C141.233 155.792 144.412 152.303 147.164 155.419" stroke="#000072" stroke-miterlimit="10"/>
<path d="M128.208 160.224C128.108 160.152 128.009 160.085 127.91 160.021C124.425 157.769 121.896 160.286 121.896 160.286C119.311 157.58 116.913 160.286 116.913 160.286C112.895 155.558 110.725 160.286 110.725 160.286" stroke="#000072" stroke-miterlimit="10"/>
<path d="M128.105 160.275C128.105 160.275 131.282 157.705 134.624 160.275C134.624 160.275 137.872 157.094 140.714 160.417C140.714 160.417 144.934 157.141 146.508 160.351" stroke="#000072" stroke-miterlimit="10"/>
<path d="M110.725 168.181C110.725 168.181 113.303 163.898 116.017 168.545C116.017 168.545 120.884 165.155 121.919 169.889C121.919 169.889 125.949 167.823 128.766 171.224C128.766 171.224 131.75 167.704 135.206 170.388C135.206 170.388 137.514 165.006 141.421 169.159C141.421 169.159 143.827 164.67 146.511 167.231" stroke="#000072" stroke-miterlimit="10"/>
<path d="M110.461 170.743C110.461 170.743 113.819 167.309 115.287 171.225C115.287 171.225 120.124 169.02 121.474 172.985C121.474 172.985 126.472 170.342 128.553 174.571C128.553 174.571 131.51 171.762 135.065 173.67C135.065 173.67 138.332 168.715 142.114 171.64C142.114 171.64 144.805 167.005 146.415 169.89" stroke="#000072" stroke-miterlimit="10"/>
<path d="M81.0254 208.055C81.0254 208.055 95.908 192.279 114.72 193.802L118.996 207.047C118.996 207.047 114.374 226.711 85.2344 220.085L81.0254 208.055Z" fill="#000072"/>
<path d="M81.0254 208.055C81.0254 208.055 95.908 192.279 114.72 193.802L118.996 207.047C118.996 207.047 114.374 226.711 85.2344 220.085L81.0254 208.055Z" stroke="#000072" stroke-miterlimit="10"/>
<path d="M137.549 210.3L141.931 191.511L162.582 197.842L174.887 204.886V210.3L171.997 220.084C171.997 220.084 151.323 226.947 137.549 210.3Z" fill="#000072"/>
<path d="M137.549 210.3L141.931 191.511L162.582 197.842L174.887 204.886V210.3L171.997 220.084C171.997 220.084 151.323 226.947 137.549 210.3Z" stroke="#000072" stroke-miterlimit="10"/>
<path d="M33.041 185.275L48.939 226.842" stroke="#000072" stroke-miterlimit="10"/>
<path d="M28.9121 190.524C28.9121 190.524 31.6591 209.765 43.6507 226.53" stroke="#000072" stroke-miterlimit="10"/>
<path d="M39.4922 183.678C39.4922 183.678 51.9094 204.935 53.8278 227.18" stroke="#000072" stroke-miterlimit="10"/>
<path d="M47.459 185.275C47.459 185.275 54.9899 200.414 59.2358 226.842" stroke="#000072" stroke-miterlimit="10"/>
<path d="M27.2246 199.502C27.2246 199.502 27.256 195.245 30.2573 196.895C30.2573 196.895 31.374 189.45 36.2798 194.177C36.2798 194.177 36.4656 186.618 43.3215 191.151C43.3215 191.151 45.2769 185.604 49.3836 190.524C49.3836 190.524 51.4203 189.389 52.7308 191.948" stroke="#000072" stroke-miterlimit="10"/>
<path d="M29.3887 193.125C29.3887 193.125 30.4412 187.619 34.6312 189.443C34.6312 189.443 35.4608 184.917 40.9863 186.422C40.9863 186.422 41.7993 183.463 48.3556 187.246" stroke="#000072" stroke-miterlimit="10"/>
<path d="M27.8086 201.766C27.8086 201.766 28.0399 197.499 31.2407 200.468C31.2407 200.468 32.2492 193.081 37.8412 197.841C37.8412 197.841 37.991 190.608 44.4982 194.696C44.4982 194.696 46.8923 190.657 51.065 194.176C51.065 194.176 51.8102 192.073 53.8924 194.176" stroke="#000072" stroke-miterlimit="10"/>
<path d="M27.8086 205.428C27.8086 205.428 29.1077 201.325 32.662 204.887C32.662 204.887 34.837 198.188 39.4902 202.721C39.4902 202.721 41.3648 193.78 47.0725 199.921C47.0725 199.921 47.9602 194.082 52.4998 198.402C52.4998 198.402 52.8444 194.817 55.2377 197.695" stroke="#000072" stroke-miterlimit="10"/>
<path d="M28.9121 208.525C28.9121 208.525 30.1208 205.146 33.6427 207.572C33.6427 207.572 37.4718 202.238 40.9858 206.058C40.9858 206.058 44.7568 200.317 48.3552 204.68C48.3552 204.68 50.2268 199.293 53.9275 203.043C53.9275 203.043 55.2988 201.035 56.4066 202.772" stroke="#000072" stroke-miterlimit="10"/>
<path d="M30.1855 212.503C30.1855 212.503 32.3143 208.822 35.0359 211.02C35.0359 211.02 37.4207 206.825 42.6175 210.32C42.6175 210.32 45.0906 204.64 50.1793 208.93C50.1793 208.93 52.0195 204.097 55.241 208.479C55.241 208.479 55.2532 203.789 57.5086 206.058" stroke="#000072" stroke-miterlimit="10"/>
<path d="M31.75 217.146V215.966C31.75 215.966 33.1761 211.659 36.5906 214.469C36.5906 214.469 40.1162 210.394 43.8468 213.538C43.8468 213.538 47.7019 208.449 51.189 212.506C51.189 212.506 53.2888 208.058 56.4079 212.489" stroke="#000072" stroke-miterlimit="10"/>
<path d="M34.4043 218.589C34.4043 218.589 34.5364 216.298 37.9192 217.145C37.9192 217.145 41.5451 214.375 45.1503 216.957C45.1503 216.957 47.694 212.408 52.0108 215.856C52.0108 215.856 55 212.311 57.0453 215.313" stroke="#000072" stroke-miterlimit="10"/>
<path d="M36.2832 221.449C36.2832 221.449 37.59 219.445 39.9811 220.866C39.9811 220.866 43.0856 217.829 46.4557 220.357C46.4557 220.357 48.8002 216.774 52.7441 219.352C52.7441 219.352 55.2448 216.085 57.7412 218.59" stroke="#000072" stroke-miterlimit="10"/>
<path d="M38.877 223.479C38.877 223.479 39.2871 221.356 41.53 223.386C41.53 223.386 44.1502 221.689 47.4629 223.479C47.4629 223.479 51.0762 221.195 53.3514 222.994C53.3514 222.994 56.3095 220.751 58.2752 222.891" stroke="#000072" stroke-miterlimit="10"/>
<path d="M42.6602 224.963C42.6602 224.963 44.4026 223.117 48.3559 225.327C48.3559 225.327 50.5258 223.991 52.5133 224.462C52.7972 224.529 53.0774 224.634 53.347 224.784" stroke="#000072" stroke-miterlimit="10"/>
<path d="M53.6445 225.339C53.6445 225.339 55.6547 223.57 59.0693 224.788" stroke="#000072" stroke-miterlimit="10"/>
<path d="M57.5084 205.439C56.9086 206.813 59.236 228.443 59.236 228.443H88.2657L87.6476 226.842L81.0263 214.106L76.8818 202.142C67.49 200.8 58.2713 178.621 58.2713 178.621L51.7344 185.631L53.3475 189.443L56.408 196.576L57.5084 205.439Z" fill="#000072"/>
<path d="M222.994 184.269L208.783 226.842" stroke="#000072" stroke-miterlimit="10"/>
<path d="M226.771 189.466C226.771 189.466 224.244 216.633 212.385 227.494" stroke="#000072" stroke-miterlimit="10"/>
<path d="M217.518 184.012C217.518 184.012 207.894 207.32 203.324 227.103" stroke="#000072" stroke-miterlimit="10"/>
<path d="M209.523 186.054C209.523 186.054 202.518 199.299 198.885 229.564" stroke="#000072" stroke-miterlimit="10"/>
<path d="M229.13 196.644C229.13 196.644 228.364 192.878 225.936 195.413C225.936 195.413 224.921 188.681 220.132 192.838C220.132 192.838 218.78 187.1 214.577 191.51C214.577 191.51 211.305 186.027 207.231 191.51C207.231 191.51 206.389 190.122 204.418 191.947" stroke="#000072" stroke-miterlimit="10"/>
<path d="M229.375 200.455C229.375 200.455 228.475 196.76 225.163 199.502C225.163 199.502 223.237 194.872 218.461 197.842C218.461 197.842 217.342 193.152 212.379 196.207C212.379 196.207 210.912 192.637 205.969 195.173C205.969 195.173 204.813 192.916 202.742 195.373" stroke="#000072" stroke-miterlimit="10"/>
<path d="M229.381 204.886C229.381 204.886 227.489 200.907 224.257 203.484C224.257 203.484 221.237 199.169 216.872 202.615C216.872 202.615 215.221 198.409 211.024 201.281C211.024 201.281 208.877 196.643 204.421 199.92C204.421 199.92 203.604 197.475 200.365 199.501" stroke="#000072" stroke-miterlimit="10"/>
<path d="M228.599 208.48C228.599 208.48 227.484 204.546 223.072 207.809C223.072 207.809 220.066 202.759 215.577 206.498C215.577 206.498 213.637 201.352 209.523 205.556C209.523 205.556 208.226 201.369 203.327 204.551C203.327 204.551 202.61 201.275 200.52 204.086C198.429 206.897 199.967 204.033 199.967 204.033" stroke="#000072" stroke-miterlimit="10"/>
<path d="M227.41 212.386C227.41 212.386 225.814 207.993 221.88 211.442C221.88 211.442 219.418 207.855 214.363 210.121C214.363 210.121 211.307 206.421 207.764 210.119C207.764 210.119 205.351 206.358 202.183 209.491C202.183 209.491 200.949 203.319 197.971 209.284" stroke="#000072" stroke-miterlimit="10"/>
<path d="M224.995 215.433C224.995 215.433 224.898 211.42 220.653 214.648C220.653 214.648 217.856 210.711 212.932 214.412C212.932 214.412 210.27 210.362 206.669 214.642C206.669 214.642 204.216 210.717 201.173 214.517C201.173 214.517 201.078 207.973 196.971 213.103" stroke="#000072" stroke-miterlimit="10"/>
<path d="M222.998 218.829C222.998 218.829 222.366 216.64 218.976 218.331C218.976 218.331 215.293 215.542 211.653 218.259C211.653 218.259 209.552 215.281 205.706 217.95C205.706 217.95 202.542 215.168 200.368 217.834C200.368 217.834 200.56 212.858 195.945 216.678" stroke="#000072" stroke-miterlimit="10"/>
<path d="M220.553 221.486C220.553 221.486 220.033 219.014 217.217 221.486C217.217 221.486 214.019 219.319 210.423 221.937C210.423 221.937 206.885 219.677 204.609 221.937C204.609 221.937 202.17 218.603 199.589 221.937C199.589 221.937 198.799 217.531 196.307 221.162" stroke="#000072" stroke-miterlimit="10"/>
<path d="M218.395 222.758C218.395 222.758 217.228 221.681 216.057 223.24C216.057 223.24 211.382 221.855 209.516 224.637C209.516 224.637 207.508 222.43 203.911 224.637C203.911 224.637 202.154 221.378 199.519 224.637C199.519 224.637 198.067 220.304 195.346 224.637" stroke="#000072" stroke-miterlimit="10"/>
<path d="M181.305 201.791L190.635 192.724L197.974 180.172L198.882 177.386L205.042 184.268L205.525 187.687L202.186 191.509L200.364 196.205L199.587 201.791V204.791L199.524 206.793C199.524 206.793 196.338 221.937 197.974 227.898L169.558 228.608L168.631 226.841L173.272 217.75L178.367 205.69L181.305 201.791Z" fill="#000072"/>
<path d="M176.092 143C176.092 143 153.351 187.498 150.797 199.921" stroke="#000072" stroke-miterlimit="10"/>
<path d="M168.832 146.417C168.832 146.417 146.602 191.284 148.568 195.08" stroke="#000072" stroke-miterlimit="10"/>
<path d="M190.058 143.967C190.058 143.967 173.158 190.384 165.297 201.23" stroke="#000072" stroke-miterlimit="10"/>
<path d="M159.566 153.175C159.566 153.175 164.709 147.687 165.981 152.268C165.981 152.268 169.434 147.141 172.247 150.652C172.247 150.652 178.948 145.212 180.021 151.299C180.021 151.299 186.113 146.458 186.621 153.175C186.621 153.175 188.833 152.543 188.779 158.186C188.779 158.186 190.767 162.569 190.19 164.272" stroke="#000072" stroke-miterlimit="10"/>
<path d="M168.041 148.039C168.041 148.039 172.068 144.372 174.367 146.418C174.367 146.418 179.785 140.88 182.61 145.488C182.61 145.488 187.969 144.533 188.064 149.362C188.064 149.362 190.233 152.107 190.064 153.176C190.064 153.176 187.581 170.002 182.831 180.001C182.831 180.001 176.533 201.79 170.119 203.534" stroke="#000072" stroke-miterlimit="10"/>
<path d="M158.789 156.554C158.789 156.554 162.009 152.502 163.918 156.554C163.918 156.554 168.639 151.965 168.831 156.554C168.831 156.554 176.283 152.921 177.267 157.48C177.267 157.48 182.769 153.525 183.882 160.287C183.882 160.287 189.172 158.292 187.494 165.173C187.494 165.173 190.429 164.399 189.875 168.726" stroke="#000072" stroke-miterlimit="10"/>
<path d="M155.891 161.62C155.891 161.62 160.569 157.213 161.158 162.4C161.158 162.4 165.689 157.952 165.936 163.574C165.936 163.574 174.031 159.384 173.846 165.173C173.846 165.173 179.5 163.356 180.515 168.804C180.515 168.804 185.399 167.161 185.907 171.758C185.907 171.758 189.51 171.532 189.172 174.467" stroke="#000072" stroke-miterlimit="10"/>
<path d="M153.402 167.234C153.402 167.234 157.007 161.165 159.199 167.198C159.199 167.198 162.115 164.545 163.438 168.304C163.438 168.304 170.529 165.917 171.15 171.226C171.15 171.226 175.949 168.186 178.341 172.987C178.341 172.987 183.907 172.061 184.716 175.372C184.716 175.372 187.254 174.575 188.164 177.39" stroke="#000072" stroke-miterlimit="10"/>
<path d="M151.984 170.749C151.984 170.749 155.32 168.99 156.315 172.986C156.315 172.986 159.77 169.938 161.157 173.594C161.157 173.594 166.814 171.412 168.628 175.986C168.628 175.986 174.756 173.643 176.748 177.958C176.748 177.958 180.904 176.844 183.171 179.686C183.171 179.686 185.928 178.642 186.304 181.481" stroke="#000072" stroke-miterlimit="10"/>
<path d="M149.598 175.443C149.598 175.443 154.222 171.978 154.215 177.791C154.215 177.791 158.232 174.924 158.793 178.503C158.793 178.503 165.047 176.675 166.593 181.481C166.593 181.481 171.8 177.655 174.371 183.495C174.371 183.495 179.728 180.603 180.943 185.369" stroke="#000072" stroke-miterlimit="10"/>
<path d="M147.889 181.008C147.889 181.008 151.463 177.122 152.656 181.481C152.656 181.481 155.946 178.673 157.161 182.659C157.161 182.659 162.917 181.05 164.861 185.369C164.861 185.369 170.028 183.133 172.542 187.574C172.542 187.574 177.009 184.703 179.316 189.074" stroke="#000072" stroke-miterlimit="10"/>
<path d="M146.281 184.676C146.281 184.676 149.944 182.391 151.097 185.368C151.097 185.368 154.305 183.133 155.54 186.455C155.54 186.455 161.833 185.149 162.809 189.074C162.809 189.074 168.553 187.417 170.784 191.326C170.784 191.326 175.148 189.767 177.675 192.859C177.675 192.859 178.697 192.241 178.695 195.08" stroke="#000072" stroke-miterlimit="10"/>
<path d="M144.889 188.132C144.889 188.132 148.803 186.108 149.597 188.703C149.597 188.703 153.797 187.006 154.135 189.909C154.135 189.909 161.258 188.284 161.681 192.52C161.681 192.52 167.987 190.615 168.919 195.08C168.919 195.08 174.386 192.812 175.594 197.842C175.594 197.842 177.727 196.822 178.345 199.921" stroke="#000072" stroke-miterlimit="10"/>
<path d="M77.5332 139.761C77.5332 139.761 97.8046 173.361 102.542 195.08" stroke="#000072" stroke-miterlimit="10"/>
<path d="M89.1621 146.246C89.1621 146.246 104.306 174.222 109.335 192.736" stroke="#000072" stroke-miterlimit="10"/>
<path d="M67.7812 145.093C67.7812 145.093 85.4355 195.566 91.2166 199.502" stroke="#000072" stroke-miterlimit="10"/>
<path d="M67.0781 154.515C67.0781 154.515 81.3568 199.492 85.6161 201.793" stroke="#000072" stroke-miterlimit="10"/>
<path d="M69.0566 147.125C69.0566 147.125 69.4505 141.845 73.7162 144.903C73.7162 144.903 75.4158 141.121 80.2482 144.421C80.2482 144.421 81.5311 142.396 85.613 144.045" stroke="#000072" stroke-miterlimit="10"/>
<path d="M68.0352 157.48C68.0352 157.48 68.4175 153.765 71.4276 155.218C71.4276 155.218 72.3594 150.07 77.5395 153.668C77.5395 153.668 78.5008 148.253 84.2187 151.567C84.2187 151.567 87.8121 146.821 91.9505 151.567C91.9505 151.567 94.9787 148.73 97.1903 151.567" stroke="#000072" stroke-miterlimit="10"/>
<path d="M67.0781 153.021C67.0781 153.021 68.4059 150.759 70.0009 151.568C70.0009 151.568 71.7205 146.651 75.4341 148.841C75.4341 148.841 77.7873 145.277 82.034 147.589C82.034 147.589 86.4555 145.536 89.1654 146.809" stroke="#000072" stroke-miterlimit="10"/>
<path d="M66.5879 164.524C66.5879 164.524 67.0983 162.024 69.9948 163.463C69.9948 163.463 70.394 159.683 73.7131 161.637C73.7131 161.637 74.5645 156.448 80.4717 159.661C80.4717 159.661 81.068 153.606 87.3374 157.48C87.3374 157.48 90.0946 152.837 94.2707 156.185C94.2707 156.185 94.7362 153.541 97.936 155.79" stroke="#000072" stroke-miterlimit="10"/>
<path d="M67.0781 170.363C67.0781 170.363 68.3996 166.226 71.7724 168.726C71.7724 168.726 72.4699 164.314 75.9372 167.232C75.9372 167.232 78.506 163.177 82.268 165.173C82.268 165.173 85.6527 159.671 90.0415 162.823C90.0415 162.823 93.2283 158.586 96.6688 161.088C96.6688 161.088 96.7913 159.471 100.048 160.287" stroke="#000072" stroke-miterlimit="10"/>
<path d="M68.0508 174.467C68.0508 174.467 68.9587 170.213 73.2332 172.986C73.2332 172.986 75.2181 170.076 77.8041 172.036C77.8041 172.036 80.0286 167.115 84.6247 169.945C84.6247 169.945 87.7099 165.465 92.6655 168.285C92.6655 168.285 94.93 164.544 99.2925 166.687C99.2925 166.687 98.9221 164.488 102.235 165.888" stroke="#000072" stroke-miterlimit="10"/>
<path d="M69.7285 178.621C69.7285 178.621 70.7236 174.888 74.1738 176.762C74.1738 176.762 76.2296 172.855 79.3522 175.801C79.3522 175.801 80.7288 170.834 86.571 174.229C86.571 174.229 89.3586 169.894 94.4944 172.014C94.4944 172.014 96.5335 167.915 101.131 170.423C101.131 170.423 102.087 168.388 104.408 170.015" stroke="#000072" stroke-miterlimit="10"/>
<path d="M69.998 182.328C69.998 182.328 71.3982 177.548 75.2225 178.622C75.2225 178.622 78.6588 176.757 80.3909 178.465C80.3909 178.465 85.3312 174.723 87.8681 177.389C87.8681 177.389 92.9729 173.32 96.0665 175.911C96.0665 175.911 99.5524 172.96 102.965 175.015C102.965 175.015 104.834 172.937 107.144 174.467" stroke="#000072" stroke-miterlimit="10"/>
<path d="M109.336 180.174C109.336 180.174 105.78 175.438 104.955 179.893C104.955 179.893 98.8853 176.227 98.313 181.481C98.313 181.481 92.351 176.966 90.2541 182.864C90.2541 182.864 84.1576 179.485 82.608 184.243C82.608 184.243 78.7199 180.143 78.1193 185.369C78.1193 185.369 76.0893 184.587 75.7344 186.615" stroke="#000072" stroke-miterlimit="10"/>
<path d="M110.939 184.243C110.939 184.243 107.652 180.583 106.777 184.732C106.777 184.732 101.945 181.528 99.9013 185.861C99.9013 185.861 94.6902 183.206 92.6652 188.132C92.6652 188.132 87.0908 184.998 85.612 190.4C85.612 190.4 81.7836 188.838 80.4738 192.737C80.4738 192.737 78.5055 192.211 77.5332 195.08" stroke="#000072" stroke-miterlimit="10"/>
<path d="M111.71 187.381C111.71 187.381 109.229 182.862 108.07 188.489C108.07 188.489 104.991 186.559 101.386 190.525C101.386 190.525 96.7754 188.932 94.2443 192.01C94.2443 192.01 90.5922 190.997 87.9423 193.698C87.7968 193.847 87.6543 194.006 87.5156 194.178" stroke="#000072" stroke-miterlimit="10"/>
<path d="M87.645 194.005C87.645 194.005 84.2392 193.693 82.47 196.895C82.47 196.895 80.0124 197.001 78.8776 199.921C77.743 202.841 78.3452 199.502 78.3452 199.502" stroke="#000072" stroke-miterlimit="10"/>
<path fill-rule="evenodd" clip-rule="evenodd" d="M128.308 21.0416C167.428 21.0416 197.522 62.0985 197.522 96.3811C197.522 130.664 142.363 144.518 128.308 145.194C114.253 145.87 56.2266 129.659 56.2266 95.3758C56.2266 61.0925 89.1884 21.0416 128.308 21.0416Z" fill="#FF850B"/>
<path d="M128.308 22.7092C89.2947 22.7092 57.8792 62.4623 57.8792 95.3763C57.8792 103.935 61.7367 111.984 69.3451 119.299C86.2923 135.592 117.213 143.546 127.436 143.547C127.717 143.547 127.98 143.541 128.229 143.529C135.636 143.173 152.7 139.329 167.446 131.899C180.412 125.366 195.868 113.901 195.868 96.3814C195.868 62.3123 166.356 22.7092 128.308 22.7092ZM127.478 146.88C116.511 146.88 84.9043 138.865 67.0635 121.712C58.7753 113.743 54.5723 104.882 54.5723 95.3763C54.5723 78.2161 62.7261 59.0922 76.3838 44.2201C90.8839 28.4307 109.809 19.3749 128.308 19.3749C146.921 19.3749 164.866 28.3931 178.838 44.7685C191.572 59.6941 199.175 78.9886 199.175 96.3814C199.175 111.597 188.714 124.91 168.924 134.882C153.748 142.529 136.083 146.489 128.386 146.86C128.102 146.873 127.798 146.88 127.478 146.88Z" fill="#000072"/>
<g opacity="0.5">
<g opacity="0.5">
<path opacity="0.5" fill-rule="evenodd" clip-rule="evenodd" d="M128.301 21.0427C152.344 21.0427 172.975 36.5536 185.308 56.4663C185.436 57.1098 185.56 57.7559 185.668 58.4072C174.408 41.7643 156.852 30.7898 137.409 27.8293C138.656 28.3042 139.379 28.8682 139.379 29.4736C139.379 31.1658 133.727 32.5374 126.755 32.5374C119.784 32.5374 114.132 31.1658 114.132 29.4736C114.132 28.8682 114.854 28.3042 116.101 27.8293C96.6575 30.7904 79.1033 41.7656 67.8438 58.4072L67.906 58.0564C80.8891 37.3482 103.341 21.0427 128.301 21.0427Z" fill="white"/>
</g>
</g>
<path fill-rule="evenodd" clip-rule="evenodd" d="M195.664 106.915C185.937 133.539 140.824 144.592 128.308 145.194C115.921 145.789 69.3875 133.265 58.5156 106.817C59.3492 92.4114 66.6074 88.474 80.0301 95.514C85.55 98.4085 91.1653 101.428 95.6147 99.1288C121.012 86.0027 136.52 88.4773 153.903 99.1288C162.032 104.11 169.966 96.6796 174.943 94.4142C190.795 87.1968 198.068 92.2446 195.664 106.915Z" fill="white"/>
<g opacity="0.300003">
<g opacity="0.300003">
<path opacity="0.300003" fill-rule="evenodd" clip-rule="evenodd" d="M197.229 90.3934C197.426 92.4053 197.53 94.4043 197.53 96.3801C197.53 97.6432 197.447 98.874 197.302 100.082L197.317 99.721C195.385 122.6 149.694 140.069 125.114 141.48C104.596 142.658 63.6163 120.386 56.7258 99.721C56.7386 100.149 56.7604 100.577 56.7796 101.004C56.4285 99.1841 56.2344 97.3098 56.2344 95.3748C56.2344 93.8345 56.3036 92.2825 56.4336 90.7222L56.5406 90.3882C72.5583 113.61 98.8348 127.455 126.887 127.455C154.937 127.455 181.211 113.61 197.229 90.3934Z" fill="#000072"/>
</g>
</g>
<path fill-rule="evenodd" clip-rule="evenodd" d="M103 79.4395C100.812 78.4561 98.5729 76.8079 96.2848 74.4981C92.3181 74.6796 89.1445 78.9523 89.1445 84.196C89.1445 89.5554 92.4584 93.9004 96.5463 93.9004C100.635 93.9004 103.949 89.5554 103.949 84.196C103.949 82.4678 103.604 80.8454 103 79.4395Z" fill="#000072"/>
<path d="M165.121 70.3011C162.451 73.8773 159.826 76.6427 157.246 78.597C153.451 81.4722 149.344 81.9755 148.889 78.809C150.93 78.5732 153.057 77.6163 155.27 75.9403C160.723 71.8079 162.428 69.1472 165.121 70.3011Z" fill="#000072"/>
<path fill-rule="evenodd" clip-rule="evenodd" d="M152.674 79.4395C154.861 78.4561 157.1 76.8079 159.389 74.4981C163.356 74.6796 166.529 78.9523 166.529 84.196C166.529 89.5554 163.216 93.9004 159.127 93.9004C155.039 93.9004 151.725 89.5554 151.725 84.196C151.725 82.4678 152.069 80.8454 152.674 79.4395Z" fill="#000072"/>
<path fill-rule="evenodd" clip-rule="evenodd" d="M156.072 81.7259C154.871 81.7259 153.898 82.7713 153.898 84.0602C153.898 85.3492 154.871 86.3945 156.072 86.3945C157.272 86.3945 158.244 85.3492 158.244 84.0602C158.244 82.7713 157.272 81.7259 156.072 81.7259Z" fill="white"/>
<path fill-rule="evenodd" clip-rule="evenodd" d="M126.88 85.8978C132.173 85.8978 136.464 88.7826 136.464 92.3407C136.464 95.8994 132.173 98.7842 126.88 98.7842C121.586 98.7842 117.295 95.8994 117.295 92.3407C117.295 88.7826 121.586 85.8978 126.88 85.8978Z" fill="#000072"/>
<path d="M136.04 106.681C132.666 106.681 129.403 105.416 126.899 103.155C124.102 105.723 120.247 106.918 116.458 106.31C112.056 105.605 108.323 102.563 106.715 98.3713C106.386 97.5124 106.809 96.5471 107.661 96.2148C108.512 95.8829 109.47 96.3097 109.799 97.1683C110.984 100.257 113.734 102.498 116.977 103.017C120.222 103.537 123.524 102.266 125.6 99.7019C125.91 99.3189 126.373 99.0944 126.863 99.089C127.358 99.0896 127.82 99.298 128.139 99.6739C130.304 102.232 133.575 103.591 136.903 103.31C140.226 103.029 143.232 101.138 144.943 98.2512C145.412 97.4605 146.428 97.2028 147.211 97.6758C147.994 98.1481 148.25 99.1719 147.781 99.962C145.525 103.768 141.562 106.262 137.179 106.632C136.799 106.665 136.419 106.681 136.04 106.681Z" fill="#000072"/>
<path fill-rule="evenodd" clip-rule="evenodd" d="M126.884 100.757C130.33 104.06 133.716 105.465 137.043 104.972C137.866 126.746 115.975 125.859 116.72 104.664C120.798 105.186 124.185 103.884 126.884 100.757Z" fill="#000072"/>
<path d="M118.367 106.443C118.531 111.991 120.482 116.353 123.733 118.294C125.88 119.575 128.307 119.594 130.391 118.342C133.503 116.473 135.292 112.29 135.407 106.729C132.594 106.638 129.767 105.41 126.968 103.063C124.559 105.311 121.702 106.444 118.442 106.444C118.417 106.444 118.392 106.444 118.367 106.443ZM127.131 122.596C125.394 122.596 123.648 122.118 122.048 121.163C117.341 118.353 114.797 112.317 115.069 104.604L115.133 102.78L116.929 103.01C120.46 103.461 123.304 102.365 125.637 99.6616L126.771 98.3472L128.023 99.5475C131.111 102.506 133.986 103.741 136.803 103.321L138.626 103.051L138.696 104.907C138.986 112.568 136.575 118.509 132.083 121.207C130.541 122.133 128.84 122.596 127.131 122.596Z" fill="#000072"/>
<path fill-rule="evenodd" clip-rule="evenodd" d="M127.06 112.798C124.117 112.798 121.352 114.219 119.623 116.619C123.603 122.334 130.659 122.428 134.461 116.571C132.73 114.2 129.982 112.798 127.06 112.798Z" fill="#FF0066"/>
<path d="M121.768 116.657C123.301 118.36 125.229 119.284 127.229 119.265C129.163 119.234 130.946 118.313 132.35 116.647C130.951 115.264 129.048 114.464 127.064 114.464C125.072 114.464 123.167 115.267 121.768 116.657ZM127.126 122.601C123.721 122.601 120.502 120.776 118.274 117.576L117.596 116.602L118.289 115.639C120.323 112.816 123.603 111.13 127.064 111.13C130.497 111.13 133.762 112.794 135.796 115.581L136.477 116.514L135.849 117.483C133.774 120.679 130.652 122.544 127.283 122.599C127.231 122.6 127.178 122.601 127.126 122.601Z" fill="#000072"/>
<path fill-rule="evenodd" clip-rule="evenodd" d="M189.474 61.4961C178.856 43.8033 166.125 31.8247 151.281 25.562C180.399 -15.5788 193.129 -3.60086 189.474 61.4961Z" fill="#FF850B"/>
<path d="M153.814 24.8624C166.846 30.8597 178.349 41.3722 188.081 56.1722C189.857 16.0612 184.461 5.38647 179.498 3.6263C175.71 2.28397 168.2 4.95332 153.814 24.8624ZM190.818 66.9639L188.054 62.3594C177.67 45.0571 165.081 33.1942 150.638 27.1002L148.727 26.2939L149.93 24.5937C163.249 5.7748 173.277 -2.11549 180.595 0.480919C189.93 3.79184 193.274 23.2098 191.12 61.5906L190.818 66.9639Z" fill="#000072"/>
<path fill-rule="evenodd" clip-rule="evenodd" d="M148.749 63.6488C151.198 62.6363 153.667 63.0033 154.262 64.4687C154.858 65.9341 153.356 67.9434 150.908 68.9565C148.459 69.9689 145.99 69.6013 145.394 68.1359C144.798 66.6706 146.301 64.6612 148.749 63.6488Z" fill="white"/>
<path fill-rule="evenodd" clip-rule="evenodd" d="M106.087 63.5516C103.638 62.5385 101.17 62.9062 100.574 64.3714C99.9779 65.8369 101.48 67.8462 103.929 68.8586C106.377 69.8711 108.846 69.5041 109.442 68.0388C110.038 66.5734 108.536 64.564 106.087 63.5516Z" fill="white"/>
<path fill-rule="evenodd" clip-rule="evenodd" d="M97.6343 81.7259C96.4335 81.7259 95.4609 82.7713 95.4609 84.0602C95.4609 85.3492 96.4335 86.3945 97.6343 86.3945C98.8344 86.3945 99.807 85.3492 99.807 84.0602C99.807 82.7713 98.8344 81.7259 97.6343 81.7259Z" fill="white"/>
<path fill-rule="evenodd" clip-rule="evenodd" d="M65.3969 62.3398C76.0145 44.6464 88.7452 32.6684 103.589 26.4052C74.4716 -14.7357 61.7409 -2.75707 65.3969 62.3398Z" fill="#FF850B"/>
<path d="M77.1341 4.17824C76.4696 4.17824 75.8832 4.28671 75.366 4.47026C70.4029 6.23052 65.0074 16.905 66.7831 57.016C76.5146 42.2164 88.0173 31.7039 101.049 25.706C88.6283 8.5159 81.3326 4.17824 77.1341 4.17824ZM64.0471 67.8086L63.7452 62.4347C61.5898 24.0538 64.9336 4.63589 74.2688 1.3247C81.5825 -1.26856 91.6136 6.61719 104.934 25.4373L106.137 27.1375L104.226 27.9438C89.7817 34.0385 77.193 45.9017 66.8104 63.2037L64.0471 67.8086Z" fill="#000072"/>
<g opacity="0.649994">
<g opacity="0.649994">
<path opacity="0.649994" fill-rule="evenodd" clip-rule="evenodd" d="M99.9531 28.0781C101.155 27.4792 102.371 26.9203 103.602 26.4002C85.5558 0.901905 73.8073 -4.18227 68.3496 11.1271C74.1617 0.361763 84.6952 6.01132 99.9512 28.0768L99.9531 28.0781Z" fill="white"/>
</g>
</g>
<path fill-rule="evenodd" clip-rule="evenodd" d="M73.3446 50.3467C78.5205 43.8916 84.3864 38.304 90.943 33.5856C76.2452 4.72509 70.3787 10.3119 73.3446 50.3467Z" fill="#000072"/>
<path d="M77.1304 17.1182C77.058 17.1182 77.0086 17.1279 76.9798 17.1361C76.8028 17.1864 75.2319 17.8391 74.5597 25.1894C74.1068 30.142 74.1604 37.1743 74.717 46.1312C78.9906 41.2558 83.7184 36.8805 88.824 33.0786C81.0902 18.1734 77.8821 17.1182 77.1304 17.1182ZM72.0098 54.666L71.6993 50.4701C69.4424 20.0062 72.6488 14.9019 76.0834 13.9266C80.1907 12.7574 85.0775 18.4111 92.4172 32.8233L93.0701 34.1051L91.9068 34.942C85.5049 39.549 79.6932 45.0843 74.6334 51.3943L72.0098 54.666Z" fill="#000072"/>
<g opacity="0.300003">
<g opacity="0.300003">
<path opacity="0.300003" fill-rule="evenodd" clip-rule="evenodd" d="M75.2599 16.4123C69.8964 20.4569 66.4319 31.3998 64.8672 49.24C64.9614 53.3368 65.1389 57.7025 65.3991 62.3389C66.1923 60.8923 67.031 59.4625 67.9172 58.0553L67.855 58.4062C72.1396 51.8165 76.7484 46.1038 81.68 41.2671C78.7961 44.0097 76.0787 46.9625 73.5274 50.1245C73.4774 50.1864 73.4274 50.2479 73.3774 50.3111C73.3729 50.3163 73.3685 50.3221 73.3634 50.3292C73.3589 50.3344 73.3551 50.3396 73.3505 50.3447C71.9134 30.947 72.5503 19.6364 75.2599 16.4123ZM179.614 15.5692C184.978 19.6144 188.442 30.5567 190.006 48.3968C189.912 52.4936 189.735 56.86 189.475 61.4958C188.681 60.0491 187.842 58.6199 186.956 57.2121L187.018 57.5629C182.734 50.9734 178.126 45.2606 173.193 40.4246C176.078 43.1673 178.795 46.1199 181.346 49.2819C181.396 49.3433 181.446 49.4053 181.496 49.468C181.5 49.4738 181.505 49.4796 181.51 49.486C181.515 49.4919 181.518 49.4964 181.523 49.5023C182.961 30.1045 182.323 18.7932 179.614 15.5692Z" fill="#000072"/>
</g>
</g>
<g opacity="0.649994">
<g opacity="0.649994">
<path opacity="0.649994" fill-rule="evenodd" clip-rule="evenodd" d="M154.932 27.2384C153.731 26.6394 152.514 26.0805 151.283 25.5611C169.329 0.0628223 181.079 -5.022 186.536 10.2874C180.724 -0.47797 170.19 5.17215 154.934 27.2378L154.932 27.2384Z" fill="white"/>
</g>
</g>
<path fill-rule="evenodd" clip-rule="evenodd" d="M181.516 49.5029C176.341 43.0471 170.475 37.4596 163.918 32.7411C178.616 3.88065 184.483 9.46803 181.516 49.5029Z" fill="#000072"/>
<path d="M166.043 32.2367C171.149 36.0393 175.877 40.415 180.15 45.2897C180.706 36.3327 180.76 29.3005 180.307 24.3478C179.635 16.9974 178.064 16.3445 177.887 16.2944C177.561 16.2031 174.522 15.8953 166.043 32.2367ZM182.856 53.8252L180.233 50.553C175.175 44.2438 169.364 38.7081 162.96 34.1001L161.797 33.2632L162.45 31.9815C169.789 17.5703 174.671 11.9169 178.784 13.085C182.218 14.0602 185.425 19.1646 183.167 49.6289L182.856 53.8252Z" fill="#000072"/>
<path d="M77.1348 4.17843C76.4702 4.17843 75.8839 4.28691 75.3667 4.47045C70.4035 6.23071 65.0075 16.9054 66.7833 57.0165C76.5152 42.2166 88.0179 31.7039 101.05 25.7062C88.6289 8.51609 81.3333 4.17843 77.1348 4.17843ZM64.0468 67.8086L63.7449 62.4349C61.59 24.054 64.9343 4.6358 74.2694 1.32489C81.5831 -1.26837 91.6143 6.61738 104.934 25.4375L106.138 27.1377L104.227 27.944C89.7823 34.0387 77.1937 45.9019 66.8103 63.2039L64.0468 67.8086Z" fill="#000072"/>
<path d="M128.308 22.7092C89.2947 22.7092 57.8792 62.4623 57.8792 95.3763C57.8792 103.935 61.7367 111.984 69.3451 119.299C86.2923 135.592 117.213 143.546 127.436 143.547C127.717 143.547 127.98 143.541 128.229 143.529C135.636 143.173 152.7 139.329 167.446 131.899C180.412 125.366 195.868 113.901 195.868 96.3814C195.868 62.3123 166.356 22.7092 128.308 22.7092ZM127.478 146.88C116.511 146.88 84.9043 138.865 67.0635 121.712C58.7753 113.743 54.5723 104.882 54.5723 95.3763C54.5723 78.2161 62.7261 59.0922 76.3838 44.2201C90.8839 28.4307 109.809 19.3749 128.308 19.3749C146.921 19.3749 164.866 28.3931 178.838 44.7685C191.572 59.6941 199.175 78.9886 199.175 96.3814C199.175 111.597 188.714 124.91 168.924 134.882C153.748 142.529 136.083 146.489 128.386 146.86C128.102 146.873 127.798 146.88 127.478 146.88Z" fill="#000072"/>
<g opacity="0.559998">
<g opacity="0.559998">
<path opacity="0.559998" fill-rule="evenodd" clip-rule="evenodd" d="M129.994 88.4795C131.439 88.8639 132.508 89.5643 132.383 90.045C132.257 90.525 130.984 90.6032 129.539 90.2188C128.093 89.835 127.023 89.134 127.149 88.6533C127.274 88.1733 128.548 88.0951 129.994 88.4795Z" fill="white"/>
</g>
</g>
<path d="M91.75 70.3011C94.4206 73.8773 97.0457 76.6427 99.6252 78.597C103.42 81.4722 107.528 81.9755 107.983 78.809C105.942 78.5732 103.814 77.6163 101.601 75.9403C96.1486 71.8079 94.443 69.1472 91.75 70.3011Z" fill="#000072"/>
<path d="M153.814 24.8624C166.846 30.8597 178.349 41.3722 188.081 56.1722C189.857 16.0612 184.461 5.38647 179.498 3.6263C175.71 2.28397 168.2 4.95332 153.814 24.8624ZM190.818 66.9639L188.054 62.3594C177.67 45.0571 165.081 33.1942 150.638 27.1002L148.727 26.2939L149.93 24.5937C163.249 5.7748 173.277 -2.11549 180.595 0.480919C189.93 3.79184 193.274 23.2098 191.12 61.5906L190.818 66.9639Z" fill="#000072"/>
</svg>
